<svg xmlns="http://www.w3.org/2000/svg" xmlns:xlink="http://www.w3.org/1999/xlink" width="11.82568359375" height="8.751953125" viewBox="0 0 11.82568359375 8.751953125" fill="none"><g ><path     fill="url(#linear_fill_18_1_0)"  d="M4.13024 3.52791L3.63424 1.41591C3.57024 1.14391 3.39424 0.999914 3.10624 0.999914L1.41024 0.999914C1.01024 0.999914 0.882238 1.27191 1.12224 1.59191L1.26624 1.78391C1.36224 1.91191 1.41024 1.99191 1.44224 2.15191L2.56224 7.33591C2.62624 7.60791 2.80224 7.75191 3.09024 7.75191L4.69024 7.75191C4.96224 7.75191 5.17024 7.60791 5.23424 7.33591L5.82624 5.11191C5.90624 4.79191 6.14624 4.79191 6.22624 5.11191L6.85024 7.35191C6.93024 7.63991 7.10624 7.75191 7.37824 7.75191L8.97824 7.75191C9.26624 7.75191 9.44224 7.60791 9.50624 7.33591L10.8022 1.52791C10.8822 1.20791 10.7062 0.999914 10.3702 0.999914L8.88224 0.999914C8.59424 0.999914 8.41824 1.14391 8.35424 1.41591L7.90624 3.52791C7.84224 3.83191 7.58624 3.83191 7.50624 3.52791L7.01024 1.41591C6.94624 1.14391 6.77024 0.999914 6.48224 0.999914L5.50624 0.999914C5.21824 0.999914 5.04224 1.14391 4.97824 1.41591L4.51424 3.52791C4.45024 3.83191 4.19424 3.83191 4.13024 3.52791Z"></path><path fill-rule="evenodd"  fill="rgba(0, 0, 0, 1)"  d="M4.66897,2.8236l-0.15473,0.70431c-0.064,0.304 -0.32,0.304 -0.384,0l-0.16441,-0.70005l-0.16615,-0.70747l-0.16544,-0.70448c-0.064,-0.272 -0.24,-0.416 -0.528,-0.416h-1.696c-0.4,0 -0.528,0.272 -0.288,0.592l0.144,0.192c0.096,0.128 0.144,0.208 0.176,0.368l1.12,5.184c0.064,0.272 0.24,0.416 0.528,0.416h1.6c0.272,0 0.48,-0.144 0.544,-0.416l0.28021,-1.05269l0.13135,-0.49346l0.18044,-0.67785c0.08,-0.32 0.32,-0.32 0.4,0l0.18782,0.67422l0.13681,0.49111l0.29937,1.07467c0.08,0.288 0.256,0.4 0.528,0.4h1.6c0.288,0 0.464,-0.144 0.528,-0.416l1.29596,-5.808c0.08,-0.32 -0.096,-0.528 -0.432,-0.528h-1.48796c-0.288,0 -0.464,0.144 -0.528,0.416l-0.15034,0.70876l-0.14824,0.69885l-0.12577,0.59291l-0.00268,0.01262l-0.02097,0.09886c-0.064,0.304 -0.32,0.304 -0.4,0l-0.16291,-0.69367l-0.16396,-0.69817l-0.16913,-0.72016c-0.064,-0.272 -0.24,-0.416 -0.528,-0.416h-0.976c-0.288,0 -0.464,0.144 -0.528,0.416l-0.15312,0.69695zM4.30622,0.5509c0.06713,-0.08342 0.14363,-0.15928 0.2295,-0.22759c0.27103,-0.2156 0.59454,-0.3234 0.97052,-0.3234h0.976c0.37597,0 0.69948,0.1078 0.97052,0.3234c0.08585,0.06829 0.16234,0.14415 0.22947,0.22759c0.06712,-0.08342 0.14362,-0.15928 0.22949,-0.22759c0.27104,-0.2156 0.59455,-0.3234 0.97052,-0.3234h1.48796c0.48273,0 0.86373,0.16904 1.143,0.50712c0.2914,0.35272 0.37897,0.76905 0.2627,1.24899l-1.2962,5.80894c-0.0852,0.36191 -0.26218,0.64976 -0.53094,0.86356c-0.27104,0.21559 -0.59455,0.32339 -0.97052,0.32339h-1.6c-0.35645,0 -0.66451,-0.09442 -0.92417,-0.28326c-0.17222,-0.12525 -0.31045,-0.28197 -0.41469,-0.47016c-0.10025,0.17479 -0.23421,0.32462 -0.40188,0.44947c-0.27211,0.20263 -0.58787,0.30395 -0.94726,0.30395h-1.6c-0.37598,0 -0.69949,-0.1078 -0.97052,-0.32339c-0.26878,-0.2138 -0.44709,-0.50761 -0.53493,-0.88143l-1.11409,-5.15721c-0.00143,-0.00193 -0.00292,-0.00392 -0.00446,-0.00597l-0.144,-0.192c-0.14567,-0.19423 -0.24206,-0.39848 -0.28917,-0.61277c-0.06496,-0.29548 -0.03424,-0.57449 0.09217,-0.83704c0.12894,-0.26781 0.33228,-0.46738 0.61002,-0.59871c0.20228,-0.09565 0.42727,-0.14348 0.67498,-0.14348h1.696c0.37597,0 0.69948,0.1078 0.97052,0.3234c0.08585,0.06829 0.16234,0.14415 0.22946,0.22759z"></path></g><defs><linearGradient id="linear_fill_18_1_0" x1="0.59423828125" y1="1.2119140625" x2="11.59423828125" y2="1.2119140625" gradientUnits="userSpaceOnUse"><stop offset="0" stop-color="#F5F5F5"  /><stop offset="1" stop-color="#000000" stop-opacity="0.95" /></linearGradient></defs></svg>