<svg width="64" height="64" viewBox="0 0 64 64" xmlns="http://www.w3.org/2000/svg">
  <defs>
    <linearGradient id="iconGrad" x1="0%" y1="0%" x2="100%" y2="100%">
      <stop offset="0%" style="stop-color:#FF6B35;stop-opacity:1" />
      <stop offset="100%" style="stop-color:#FF9500;stop-opacity:1" />
    </linearGradient>
  </defs>
  
  <!-- 背景圆 -->
  <circle cx="32" cy="32" r="30" fill="url(#iconGrad)"/>
  
  <!-- 眼睛图标 -->
  <g transform="translate(32, 20)">
    <!-- 眼睛外框 -->
    <ellipse cx="0" cy="0" rx="12" ry="6" fill="none" stroke="#ffffff" stroke-width="2.5"/>
    <!-- 眼球 -->
    <circle cx="0" cy="0" r="4" fill="#ffffff"/>
    <!-- 瞳孔 -->
    <circle cx="0" cy="0" r="2" fill="#1a1a1a"/>
  </g>
  
  <!-- 铃铛图标 -->
  <g transform="translate(32, 45)">
    <!-- 铃铛主体 -->
    <path d="M0 -8 C-3 -8, -5 -6, -5 -3 L-5 0 C-5 1, -6 2, -7 3 L7 3 C6 2, 5 1, 5 0 L5 -3 C5 -6, 3 -8, 0 -8 Z" fill="#ffffff"/>
    <!-- 铃铛顶部 -->
    <rect x="-1" y="-10" width="2" height="3" fill="#ffffff" rx="1"/>
    <!-- 铃铛底部 -->
    <path d="M-2 3 C-2 4.5, -1 5.5, 0 5.5 C1 5.5, 2 4.5, 2 3" fill="none" stroke="#ffffff" stroke-width="1.5"/>
  </g>
  
  <!-- W字母 -->
  <text x="18" y="38" font-family="Arial, sans-serif" font-size="16" font-weight="bold" fill="#ffffff">W</text>
</svg>