<svg xmlns="http://www.w3.org/2000/svg" viewBox="0 0 927 927">
<rect width="927" height="927" fill="black"/>
<polygon points="683.0,669.5 682.0,669.5 681.0,669.5 680.0,669.5 679.0,669.5 678.0,669.5 677.0,669.5 676.0,669.5 675.0,669.5 674.0,669.5 673.5,669.0 673.0,668.5 672.0,668.5 671.0,668.5 670.0,668.5 669.0,668.5 668.0,668.5 667.0,668.5 666.0,668.5 665.0,668.5 664.0,668.5 663.5,668.0 663.0,667.5 662.0,667.5 661.0,667.5 660.5,667.0 660.0,666.5 659.0,666.5 658.0,666.5 657.0,666.5 656.5,666.0 656.0,665.5 655.0,665.5 654.0,665.5 653.5,665.0 653.0,664.5 652.0,664.5 651.0,664.5 650.5,664.0 650.0,663.5 649.0,663.5 648.0,663.5 647.5,663.0 647.0,662.5 646.0,662.5 645.5,662.0 645.0,661.5 644.0,661.5 643.5,661.0 643.0,660.5 642.0,660.5 641.5,660.0 641.0,659.5 640.0,659.5 639.5,659.0 639.0,658.5 638.5,658.0 638.0,657.5 637.0,657.5 636.5,657.0 636.0,656.5 635.0,656.5 634.5,656.0 634.0,655.5 633.0,655.5 632.5,655.0 632.0,654.5 631.5,654.0 631.0,653.5 630.5,653.0 630.0,652.5 629.0,652.5 628.5,652.0 628.0,651.5 627.5,651.0 627.0,650.5 626.0,650.5 625.5,650.0 625.0,649.5 624.5,649.0 624.0,648.5 623.5,648.0 623.0,647.5 622.5,647.0 622.0,646.5 621.0,646.5 620.5,646.0 620.0,645.5 619.5,645.0 619.0,644.5 618.0,644.5 617.5,644.0 617.0,643.5 616.5,643.0 616.0,642.5 615.5,642.0 615.0,641.5 614.5,641.0 614.0,640.5 613.0,640.5 612.5,640.0 612.0,639.5 611.5,639.0 611.0,638.5 610.5,638.0 610.0,637.5 609.0,637.5 608.5,637.0 608.0,636.5 607.5,636.0 607.0,635.5 606.5,635.0 606.0,634.5 605.5,634.0 605.0,633.5 604.0,633.5 603.5,633.0 603.0,632.5 602.5,632.0 602.0,631.5 601.5,631.0 601.0,630.5 600.5,630.0 600.0,629.5 599.5,629.0 599.0,628.5 598.5,628.0 598.0,627.5 597.0,627.5 596.5,627.0 596.0,626.5 595.5,626.0 595.0,625.5 594.5,625.0 594.0,624.5 593.5,624.0 593.0,623.5 592.5,623.0 592.0,622.5 591.5,622.0 591.0,621.5 590.0,621.5 589.5,621.0 589.0,620.5 588.5,620.0 588.0,619.5 587.5,619.0 587.0,618.5 586.5,618.0 586.0,617.5 585.5,617.0 585.0,616.5 584.5,616.0 584.0,615.5 583.5,615.0 583.0,614.5 582.5,615.0 582.5,616.0 583.0,616.5 583.5,617.0 584.0,617.5 584.5,618.0 585.0,618.5 585.5,619.0 586.0,619.5 586.5,620.0 587.0,620.5 587.5,621.0 588.0,621.5 588.5,622.0 588.5,623.0 589.0,623.5 589.5,624.0 590.0,624.5 590.5,625.0 590.5,626.0 591.0,626.5 591.5,627.0 592.0,627.5 592.5,628.0 593.0,628.5 593.5,629.0 594.0,629.5 594.5,630.0 594.5,631.0 595.0,631.5 595.5,632.0 596.0,632.5 596.5,633.0 597.0,633.5 597.5,634.0 598.0,634.5 598.5,635.0 599.0,635.5 599.5,636.0 599.5,637.0 600.0,637.5 600.5,638.0 601.0,638.5 601.5,639.0 602.0,639.5 602.5,640.0 602.5,641.0 603.0,641.5 603.5,642.0 604.0,642.5 604.5,643.0 605.0,643.5 605.5,644.0 606.0,644.5 606.5,645.0 606.5,646.0 607.0,646.5 607.5,647.0 608.0,647.5 608.5,648.0 609.0,648.5 609.5,649.0 610.0,649.5 610.5,650.0 610.5,651.0 611.0,651.5 611.5,652.0 612.0,652.5 612.5,653.0 613.0,653.5 613.5,654.0 614.0,654.5 614.5,655.0 615.0,655.5 615.5,656.0 615.5,657.0 616.0,657.5 616.5,658.0 617.0,658.5 617.5,659.0 617.5,660.0 617.5,661.0 617.0,661.5 616.5,662.0 616.0,662.5 615.0,662.5 614.0,662.5 613.0,662.5 612.0,662.5 611.0,662.5 610.0,662.5 609.0,662.5 608.0,662.5 607.5,662.0 607.0,661.5 606.0,661.5 605.0,661.5 604.0,661.5 603.0,661.5 602.5,661.0 602.0,660.5 601.0,660.5 600.0,660.5 599.5,660.0 599.0,659.5 598.0,659.5 597.5,659.0 597.0,658.5 596.0,658.5 595.0,658.5 594.5,658.0 594.0,657.5 593.0,657.5 592.5,657.0 592.0,656.5 591.5,656.0 591.0,655.5 590.0,655.5 589.5,655.0 589.0,654.5 588.5,654.0 588.0,653.5 587.0,653.5 586.5,653.0 586.0,652.5 585.5,652.0 585.0,651.5 584.5,651.0 584.0,650.5 583.0,650.5 582.5,650.0 582.0,649.5 581.5,649.0 581.0,648.5 580.5,648.0 580.0,647.5 579.5,647.0 579.0,646.5 578.5,646.0 578.0,645.5 577.5,645.0 577.0,644.5 576.5,644.0 576.0,643.5 575.5,643.0 575.0,642.5 574.5,642.0 574.5,641.0 574.0,640.5 573.0,640.5 572.5,640.0 572.5,639.0 572.0,638.5 571.5,638.0 571.0,637.5 570.5,637.0 570.0,636.5 569.5,636.0 569.0,635.5 568.5,635.0 568.0,634.5 567.5,634.0 567.5,633.0 567.0,632.5 566.5,632.0 566.0,631.5 565.5,631.0 565.0,630.5 564.5,630.0 564.5,629.0 564.0,628.5 563.5,628.0 563.0,627.5 562.5,627.0 562.0,626.5 561.5,626.0 561.5,625.0 561.0,624.5 560.5,624.0 560.0,623.5 559.5,623.0 559.0,622.5 558.5,622.0 558.5,621.0 558.0,620.5 557.5,620.0 557.0,619.5 556.5,619.0 556.0,618.5 555.5,618.0 555.5,617.0 555.0,616.5 554.5,616.0 554.0,615.5 553.5,615.0 553.0,614.5 552.5,614.0 552.5,613.0 552.0,612.5 551.5,612.0 551.0,611.5 550.5,611.0 550.0,610.5 549.5,610.0 549.5,609.0 549.0,608.5 548.5,608.0 548.0,607.5 547.5,607.0 547.0,606.5 546.5,606.0 546.5,605.0 546.0,604.5 545.5,604.0 545.0,603.5 544.5,603.0 544.5,602.0 544.0,601.5 543.5,601.0 543.5,600.0 543.0,599.5 542.5,599.0 542.0,598.5 541.5,598.0 541.0,597.5 540.0,597.5 539.0,597.5 538.0,597.5 537.0,597.5 536.0,597.5 535.0,597.5 534.0,597.5 533.0,597.5 532.0,597.5 531.0,597.5 530.0,597.5 529.0,597.5 528.0,597.5 527.0,597.5 526.0,597.5 525.5,598.0 525.5,599.0 525.5,600.0 525.5,601.0 526.0,601.5 526.5,602.0 526.5,603.0 526.5,604.0 527.0,604.5 527.5,605.0 527.5,606.0 528.0,606.5 528.5,607.0 529.0,607.5 529.5,608.0 529.5,609.0 530.0,609.5 530.5,610.0 531.0,610.5 531.5,611.0 531.5,612.0 532.0,612.5 532.5,613.0 533.0,613.5 533.5,614.0 534.0,614.5 535.0,614.5 535.5,615.0 536.0,615.5 536.5,616.0 537.0,616.5 537.5,617.0 538.0,617.5 539.0,617.5 540.0,617.5 540.5,618.0 541.0,618.5 542.0,618.5 543.0,618.5 544.0,618.5 545.0,618.5 546.0,618.5 546.5,618.0 547.0,617.5 548.0,617.5 548.5,617.0 549.0,616.5 549.5,616.0 550.0,615.5 550.5,616.0 550.5,617.0 550.0,617.5 549.5,618.0 549.0,618.5 548.5,619.0 548.0,619.5 547.5,620.0 547.0,620.5 546.5,621.0 546.0,621.5 545.5,622.0 545.0,622.5 544.5,623.0 544.0,623.5 543.5,624.0 543.0,624.5 542.0,624.5 541.5,625.0 541.0,625.5 540.0,625.5 539.5,626.0 539.0,626.5 538.0,626.5 537.0,626.5 536.0,626.5 535.0,626.5 534.0,626.5 533.5,627.0 533.0,627.5 532.0,627.5 531.0,627.5 530.5,627.0 530.0,626.5 529.0,626.5 528.0,626.5 527.0,626.5 526.5,626.0 526.0,625.5 525.0,625.5 524.5,625.0 524.0,624.5 523.0,624.5 522.5,624.0 522.0,623.5 521.5,623.0 521.0,622.5 520.0,622.5 519.5,622.0 519.0,621.5 518.5,621.0 518.0,620.5 517.0,620.5 516.5,621.0 516.0,621.5 515.5,622.0 515.0,622.5 514.5,623.0 514.0,623.5 513.0,623.5 512.5,624.0 512.0,624.5 511.5,625.0 511.0,625.5 510.0,625.5 509.0,625.5 508.5,626.0 508.0,626.5 507.0,626.5 506.0,626.5 505.0,626.5 504.0,626.5 503.0,626.5 502.0,626.5 501.0,626.5 500.0,626.5 499.5,626.0 499.0,625.5 498.0,625.5 497.5,625.0 497.0,624.5 496.0,624.5 495.5,624.0 495.0,623.5 494.5,623.0 494.0,622.5 493.0,622.5 492.5,622.0 492.0,621.5 491.5,621.0 491.0,620.5 490.5,620.0 490.0,619.5 489.5,619.0 489.0,618.5 488.5,618.0 488.0,617.5 487.5,617.0 487.5,616.0 487.0,615.5 486.5,615.0 486.0,614.5 485.5,614.0 485.5,613.0 485.0,612.5 484.5,612.0 484.0,611.5 483.5,611.0 483.5,610.0 483.5,609.0 483.0,608.5 482.5,608.0 482.5,607.0 482.0,606.5 481.5,606.0 481.5,605.0 481.5,604.0 481.0,603.5 480.5,603.0 480.5,602.0 480.5,601.0 480.0,600.5 479.5,600.0 479.5,599.0 479.5,598.0 479.5,597.0 479.0,596.5 478.5,596.0 478.0,595.5 477.0,595.5 476.0,595.5 475.0,595.5 474.0,595.5 473.0,595.5 472.0,595.5 471.0,595.5 470.0,595.5 469.0,595.5 468.0,595.5 467.0,595.5 466.5,595.0 466.0,594.5 465.0,594.5 464.0,594.5 463.0,594.5 462.0,594.5 461.0,594.5 460.0,594.5 459.0,594.5 458.5,594.0 458.0,593.5 457.0,593.5 456.0,593.5 455.0,593.5 454.0,593.5 453.0,593.5 452.0,593.5 451.5,593.0 451.0,592.5 450.0,592.5 449.0,592.5 448.0,592.5 447.0,592.5 446.0,592.5 445.5,592.0 445.0,591.5 444.0,591.5 443.0,591.5 442.0,591.5 441.0,591.5 440.0,591.5 439.5,591.0 439.0,590.5 438.0,590.5 437.0,590.5 436.0,590.5 435.5,590.0 435.0,589.5 434.0,589.5 433.0,589.5 432.0,589.5 431.5,589.0 431.0,588.5 430.0,588.5 429.0,588.5 428.0,588.5 427.0,588.5 426.5,588.0 426.0,587.5 425.0,587.5 424.0,587.5 423.0,587.5 422.0,587.5 421.5,587.0 421.0,586.5 420.0,586.5 419.0,586.5 418.5,586.0 418.0,585.5 417.0,585.5 416.0,585.5 415.0,585.5 414.5,585.0 414.0,584.5 413.0,584.5 412.0,584.5 411.5,584.0 411.0,583.5 410.0,583.5 409.0,583.5 408.5,583.0 408.0,582.5 407.0,582.5 406.0,582.5 405.5,582.0 405.0,581.5 404.0,581.5 403.0,581.5 402.5,581.0 402.0,580.5 401.0,580.5 400.5,580.0 400.0,579.5 399.0,579.5 398.0,579.5 397.5,579.0 397.0,578.5 396.0,578.5 395.5,578.0 395.0,577.5 394.0,577.5 393.5,577.0 393.0,576.5 392.0,576.5 391.5,576.0 391.0,575.5 390.0,575.5 389.5,575.0 389.0,574.5 388.0,574.5 387.5,574.0 387.0,573.5 386.0,573.5 385.5,573.0 385.0,572.5 384.0,572.5 383.5,572.0 383.0,571.5 382.0,571.5 381.5,571.0 381.0,570.5 380.0,570.5 379.5,570.0 379.0,569.5 378.0,569.5 377.5,569.0 377.0,568.5 376.0,568.5 375.5,568.0 375.0,567.5 374.5,567.0 374.0,566.5 373.0,566.5 372.5,566.0 372.0,565.5 371.0,565.5 370.5,565.0 370.0,564.5 369.5,564.0 369.0,563.5 368.0,563.5 367.5,563.0 367.0,562.5 366.5,562.0 366.0,561.5 365.0,561.5 364.5,561.0 364.0,560.5 363.5,560.0 363.0,559.5 362.5,559.0 362.0,558.5 361.0,558.5 360.5,558.0 360.0,557.5 359.5,557.0 359.0,556.5 358.0,556.5 357.5,556.0 357.0,555.5 356.5,555.0 356.0,554.5 355.5,554.0 355.0,553.5 354.5,553.0 354.0,552.5 353.0,552.5 352.5,552.0 352.0,551.5 351.5,551.0 351.0,550.5 350.5,550.0 350.0,549.5 349.5,549.0 349.0,548.5 348.5,548.0 348.0,547.5 347.5,547.0 347.0,546.5 346.0,546.5 345.5,546.0 345.0,545.5 344.5,545.0 344.0,544.5 343.5,544.0 343.0,543.5 342.5,543.0 342.0,542.5 341.5,542.0 341.0,541.5 340.0,541.5 339.5,541.0 339.0,540.5 338.5,540.0 338.0,539.5 337.5,539.0 337.0,538.5 336.5,538.0 336.0,537.5 335.0,537.5 334.5,537.0 334.0,536.5 333.5,536.0 333.0,535.5 332.5,535.0 332.0,534.5 331.0,534.5 330.5,534.0 330.0,533.5 329.5,533.0 329.0,532.5 328.5,532.0 328.0,531.5 327.0,531.5 326.5,531.0 326.0,530.5 325.5,530.0 325.0,529.5 324.0,529.5 323.5,529.0 323.0,528.5 322.5,528.0 322.0,527.5 321.0,527.5 320.5,527.0 320.0,526.5 319.5,526.0 319.0,525.5 318.0,525.5 317.5,525.0 317.0,524.5 316.0,524.5 315.5,524.0 315.0,523.5 314.0,523.5 313.5,523.0 313.0,522.5 312.5,522.0 312.0,521.5 311.0,521.5 310.0,521.5 309.5,521.0 309.0,520.5 308.0,520.5 307.5,520.0 307.0,519.5 306.0,519.5 305.5,519.0 305.0,518.5 304.0,518.5 303.5,518.0 303.0,517.5 302.0,517.5 301.0,517.5 300.5,517.0 300.0,516.5 299.0,516.5 298.0,516.5 297.5,516.0 297.0,515.5 296.0,515.5 295.0,515.5 294.0,515.5 293.5,515.0 293.0,514.5 292.0,514.5 291.0,514.5 290.0,514.5 289.0,514.5 288.0,514.5 287.0,514.5 286.0,514.5 285.0,514.5 284.0,514.5 283.0,514.5 282.0,514.5 281.0,514.5 280.0,514.5 279.5,515.0 279.0,515.5 278.0,515.5 277.5,516.0 277.0,516.5 276.5,517.0 276.0,517.5 275.5,518.0 275.5,519.0 275.0,519.5 274.5,520.0 274.5,521.0 274.0,521.5 273.5,522.0 273.5,523.0 273.5,524.0 273.5,525.0 273.5,526.0 273.5,527.0 273.0,527.5 272.0,527.5 271.5,527.0 271.0,526.5 270.5,526.0 270.0,525.5 269.5,525.0 269.5,524.0 269.0,523.5 268.5,523.0 268.0,522.5 267.5,522.0 267.5,521.0 267.0,520.5 266.5,520.0 266.5,519.0 266.0,518.5 265.5,518.0 265.5,517.0 265.5,516.0 265.0,515.5 264.5,515.0 264.5,514.0 264.5,513.0 264.5,512.0 264.0,511.5 263.5,511.0 263.5,510.0 263.5,509.0 263.5,508.0 263.5,507.0 263.5,506.0 263.5,505.0 263.5,504.0 263.5,503.0 263.5,502.0 263.5,501.0 264.0,500.5 264.5,500.0 264.5,499.0 264.5,498.0 264.5,497.0 265.0,496.5 265.5,496.0 265.5,495.0 265.5,494.0 266.0,493.5 266.5,493.0 266.5,492.0 267.0,491.5 267.5,491.0 268.0,490.5 268.5,490.0 268.5,489.0 269.0,488.5 269.5,488.0 270.0,487.5 270.5,487.0 271.0,486.5 271.5,486.0 271.5,485.0 272.0,484.5 272.5,484.0 272.5,483.0 272.5,482.0 272.5,481.0 272.5,480.0 272.5,479.0 272.5,478.0 272.5,477.0 272.5,476.0 272.5,475.0 272.5,474.0 272.5,473.0 272.5,472.0 272.5,471.0 273.0,470.5 273.5,470.0 273.5,469.0 273.5,468.0 274.0,467.5 274.5,467.0 274.5,466.0 275.0,465.5 275.5,465.0 275.5,464.0 276.0,463.5 276.5,463.0 276.5,462.0 277.0,461.5 277.5,461.0 278.0,460.5 278.5,460.0 278.5,459.0 279.0,458.5 279.5,458.0 280.0,457.5 280.5,457.0 281.0,456.5 281.5,456.0 282.0,455.5 282.5,455.0 283.0,454.5 283.5,454.0 284.0,453.5 284.5,453.0 285.0,452.5 285.5,452.0 286.0,451.5 287.0,451.5 287.5,451.0 288.0,450.5 288.5,450.0 289.0,449.5 290.0,449.5 290.5,449.0 291.0,448.5 291.5,448.0 292.0,447.5 292.5,447.0 293.0,446.5 294.0,446.5 294.5,446.0 295.0,445.5 296.0,445.5 296.5,445.0 297.0,444.5 298.0,444.5 298.5,444.0 299.0,443.5 300.0,443.5 300.5,443.0 301.0,442.5 302.0,442.5 302.5,442.0 303.0,441.5 304.0,441.5 305.0,441.5 305.5,441.0 306.0,440.5 307.0,440.5 307.5,440.0 308.0,439.5 309.0,439.5 309.5,439.0 310.0,438.5 311.0,438.5 312.0,438.5 312.5,438.0 313.0,437.5 314.0,437.5 315.0,437.5 315.5,437.0 316.0,436.5 317.0,436.5 318.0,436.5 318.5,436.0 318.5,435.0 318.5,434.0 318.0,433.5 317.5,433.0 317.0,432.5 316.5,432.0 316.0,431.5 315.5,431.0 315.5,430.0 315.0,429.5 314.5,429.0 314.0,428.5 313.5,428.0 313.5,427.0 313.0,426.5 312.5,426.0 312.0,425.5 311.5,425.0 311.0,424.5 310.5,424.0 310.0,423.5 309.5,423.0 309.0,422.5 308.5,422.0 308.5,421.0 308.0,420.5 307.5,420.0 307.0,419.5 306.5,419.0 306.0,418.5 305.5,418.0 305.0,417.5 304.5,417.0 304.0,416.5 303.5,416.0 303.0,415.5 302.5,415.0 302.5,414.0 302.0,413.5 301.5,413.0 301.0,412.5 300.0,412.5 299.5,412.0 299.0,411.5 298.5,411.0 298.0,410.5 297.5,410.0 297.0,409.5 296.5,409.0 296.0,408.5 295.5,408.0 295.0,407.5 294.5,407.0 294.0,406.5 293.5,406.0 293.0,405.5 292.0,405.5 291.5,405.0 291.0,404.5 290.5,404.0 290.0,403.5 289.5,403.0 289.0,402.5 288.0,402.5 287.5,402.0 287.0,401.5 286.5,401.0 286.0,400.5 285.0,400.5 284.5,400.0 284.0,399.5 283.5,399.0 283.0,398.5 282.0,398.5 281.5,398.0 281.0,397.5 280.0,397.5 279.5,397.0 279.0,396.5 278.0,396.5 277.5,396.0 277.0,395.5 276.0,395.5 275.5,395.0 275.0,394.5 274.0,394.5 273.0,394.5 272.5,394.0 272.0,393.5 271.0,393.5 270.5,393.0 270.0,392.5 269.0,392.5 268.0,392.5 267.5,392.0 267.0,391.5 266.0,391.5 265.0,391.5 264.0,391.5 263.5,391.0 263.0,390.5 262.0,390.5 261.0,390.5 260.5,390.0 260.0,389.5 259.0,389.5 258.0,389.5 257.5,389.0 257.0,388.5 256.0,388.5 255.0,388.5 254.0,388.5 253.5,388.0 253.0,387.5 252.0,387.5 251.0,387.5 250.5,387.0 250.0,386.5 249.0,386.5 248.0,386.5 247.5,386.0 247.0,385.5 246.0,385.5 245.0,385.5 244.5,385.0 244.0,384.5 243.0,384.5 242.0,384.5 241.0,384.5 240.5,384.0 240.0,383.5 239.0,383.5 238.5,383.0 238.0,382.5 237.0,382.5 236.0,382.5 235.5,382.0 235.0,381.5 234.0,381.5 233.0,381.5 232.5,381.0 232.0,380.5 231.0,380.5 230.5,380.0 230.0,379.5 229.0,379.5 228.5,379.0 228.0,378.5 227.0,378.5 226.0,378.5 225.5,378.0 225.0,377.5 224.0,377.5 223.5,377.0 223.0,376.5 222.0,376.5 221.5,376.0 221.0,375.5 220.5,375.0 220.0,374.5 219.0,374.5 218.5,374.0 218.0,373.5 217.5,373.0 217.0,372.5 216.0,372.5 215.5,372.0 215.0,371.5 214.0,371.5 213.5,371.0 213.0,370.5 212.5,370.0 212.0,369.5 211.5,369.0 211.0,368.5 210.0,368.5 209.5,368.0 209.0,367.5 208.5,367.0 208.0,366.5 207.5,366.0 207.0,365.5 206.5,365.0 206.0,364.5 205.5,364.0 205.0,363.5 204.5,363.0 204.0,362.5 203.5,362.0 203.0,361.5 202.5,361.0 202.0,360.5 201.5,360.0 201.0,359.5 200.5,359.0 200.0,358.5 199.5,358.0 199.0,357.5 198.5,357.0 198.0,356.5 197.5,356.0 197.0,355.5 196.5,355.0 196.0,354.5 195.5,354.0 195.0,353.5 194.5,353.0 194.5,352.0 194.0,351.5 193.5,351.0 193.5,350.0 193.0,349.5 192.5,349.0 193.0,348.5 194.0,348.5 195.0,348.5 196.0,348.5 197.0,348.5 197.5,349.0 198.0,349.5 199.0,349.5 200.0,349.5 201.0,349.5 201.5,350.0 202.0,350.5 203.0,350.5 204.0,350.5 205.0,350.5 205.5,351.0 206.0,351.5 207.0,351.5 208.0,351.5 209.0,351.5 210.0,351.5 210.5,352.0 211.0,352.5 212.0,352.5 213.0,352.5 214.0,352.5 215.0,352.5 215.5,353.0 216.0,353.5 217.0,353.5 218.0,353.5 219.0,353.5 220.0,353.5 221.0,353.5 222.0,353.5 222.5,354.0 223.0,354.5 224.0,354.5 225.0,354.5 226.0,354.5 227.0,354.5 228.0,354.5 228.5,355.0 229.0,355.5 230.0,355.5 231.0,355.5 232.0,355.5 233.0,355.5 234.0,355.5 235.0,355.5 235.5,356.0 236.0,356.5 237.0,356.5 238.0,356.5 239.0,356.5 240.0,356.5 241.0,356.5 241.5,357.0 242.0,357.5 243.0,357.5 244.0,357.5 245.0,357.5 246.0,357.5 247.0,357.5 248.0,357.5 249.0,357.5 250.0,357.5 250.5,358.0 251.0,358.5 252.0,358.5 253.0,358.5 254.0,358.5 255.0,358.5 255.5,358.0 255.0,357.5 254.0,357.5 253.0,357.5 252.0,357.5 251.5,357.0 251.0,356.5 250.0,356.5 249.0,356.5 248.0,356.5 247.5,356.0 247.0,355.5 246.0,355.5 245.0,355.5 244.0,355.5 243.5,355.0 243.0,354.5 242.0,354.5 241.0,354.5 240.5,354.0 240.0,353.5 239.0,353.5 238.0,353.5 237.0,353.5 236.5,353.0 236.0,352.5 235.0,352.5 234.0,352.5 233.5,352.0 233.0,351.5 232.0,351.5 231.0,351.5 230.5,351.0 230.0,350.5 229.0,350.5 228.0,350.5 227.5,350.0 227.0,349.5 226.0,349.5 225.0,349.5 224.5,349.0 224.0,348.5 223.0,348.5 222.0,348.5 221.5,348.0 221.0,347.5 220.0,347.5 219.0,347.5 218.5,347.0 218.0,346.5 217.0,346.5 216.0,346.5 215.5,346.0 215.0,345.5 214.0,345.5 213.5,345.0 213.0,344.5 212.0,344.5 211.0,344.5 210.5,344.0 210.0,343.5 209.0,343.5 208.0,343.5 207.5,343.0 207.0,342.5 206.0,342.5 205.5,342.0 205.0,341.5 204.0,341.5 203.5,341.0 203.0,340.5 202.0,340.5 201.0,340.5 200.5,340.0 200.0,339.5 199.0,339.5 198.5,339.0 198.0,338.5 197.0,338.5 196.5,338.0 196.0,337.5 195.0,337.5 194.5,337.0 194.0,336.5 193.0,336.5 192.5,336.0 192.0,335.5 191.0,335.5 190.5,335.0 190.0,334.5 189.0,334.5 188.5,334.0 188.0,333.5 187.0,333.5 186.5,333.0 186.0,332.5 185.5,332.0 185.0,331.5 184.0,331.5 183.5,331.0 183.0,330.5 182.0,330.5 181.5,330.0 181.0,329.5 180.0,329.5 179.5,329.0 179.0,328.5 178.5,328.0 178.0,327.5 177.0,327.5 176.5,327.0 176.0,326.5 175.5,326.0 175.0,325.5 174.0,325.5 173.5,325.0 173.0,324.5 172.5,324.0 172.0,323.5 171.0,323.5 170.5,323.0 170.0,322.5 169.5,322.0 169.0,321.5 168.5,321.0 168.0,320.5 167.5,320.0 167.0,319.5 166.5,319.0 166.0,318.5 165.0,318.5 164.5,318.0 164.0,317.5 163.5,317.0 163.0,316.5 162.5,316.0 162.0,315.5 161.5,315.0 161.0,314.5 160.5,314.0 160.0,313.5 159.5,313.0 159.0,312.5 158.5,312.0 158.0,311.5 157.5,311.0 157.0,310.5 156.5,310.0 156.0,309.5 155.5,309.0 155.0,308.5 154.5,308.0 154.0,307.5 153.5,307.0 153.0,306.5 152.5,306.0 152.5,305.0 152.0,304.5 151.5,304.0 151.0,303.5 150.5,303.0 150.0,302.5 149.5,302.0 149.0,301.5 148.5,301.0 148.5,300.0 148.0,299.5 147.5,299.0 147.0,298.5 146.5,298.0 146.5,297.0 146.0,296.5 145.5,296.0 145.0,295.5 144.5,295.0 144.5,294.0 144.0,293.5 143.5,293.0 143.5,292.0 143.5,291.0 144.0,290.5 145.0,290.5 146.0,290.5 147.0,290.5 147.5,291.0 148.0,291.5 149.0,291.5 149.5,292.0 150.0,292.5 151.0,292.5 151.5,293.0 152.0,293.5 153.0,293.5 153.5,294.0 154.0,294.5 155.0,294.5 155.5,295.0 156.0,295.5 157.0,295.5 157.5,296.0 158.0,296.5 159.0,296.5 159.5,297.0 160.0,297.5 161.0,297.5 161.5,298.0 162.0,298.5 163.0,298.5 163.5,299.0 164.0,299.5 165.0,299.5 166.0,299.5 166.5,300.0 167.0,300.5 168.0,300.5 168.5,301.0 169.0,301.5 170.0,301.5 170.5,301.0 170.5,300.0 170.0,299.5 169.5,299.0 169.5,298.0 169.5,297.0 169.0,296.5 168.5,296.0 168.5,295.0 168.5,294.0 168.5,293.0 168.0,292.5 167.5,292.0 167.0,291.5 166.5,291.0 166.0,290.5 165.5,290.0 165.0,289.5 164.0,289.5 163.5,289.0 163.0,288.5 162.0,288.5 161.5,288.0 161.0,287.5 160.5,287.0 160.0,286.5 159.0,286.5 158.5,286.0 158.0,285.5 157.5,285.0 157.0,284.5 156.0,284.5 155.5,284.0 155.0,283.5 154.5,283.0 154.0,282.5 153.0,282.5 152.5,282.0 152.0,281.5 151.5,281.0 151.0,280.5 150.5,280.0 150.0,279.5 149.0,279.5 148.5,279.0 148.0,278.5 147.5,278.0 147.0,277.5 146.5,277.0 146.0,276.5 145.5,276.0 145.0,275.5 144.0,275.5 143.5,275.0 143.0,274.5 142.5,274.0 142.0,273.5 141.5,273.0 141.0,272.5 140.5,272.0 140.0,271.5 139.5,271.0 139.0,270.5 138.5,270.0 138.0,269.5 137.0,269.5 136.5,269.0 136.0,268.5 135.5,268.0 135.0,267.5 134.5,267.0 134.0,266.5 133.5,266.0 133.0,265.5 132.5,265.0 132.0,264.5 131.5,264.0 131.0,263.5 130.5,263.0 130.0,262.5 129.5,262.0 129.0,261.5 128.5,261.0 128.0,260.5 127.5,260.0 127.0,259.5 126.5,259.0 126.0,258.5 125.5,258.0 125.0,257.5 124.5,257.0 124.5,256.0 124.0,255.5 123.5,255.0 123.0,254.5 122.5,254.0 122.0,253.5 121.5,253.0 121.0,252.5 120.5,252.0 120.5,251.0 120.0,250.5 119.5,250.0 119.0,249.5 118.5,249.0 118.0,248.5 117.5,248.0 117.5,247.0 117.0,246.5 116.5,246.0 116.0,245.5 115.5,245.0 115.5,244.0 115.0,243.5 114.5,243.0 114.0,242.5 113.5,242.0 113.5,241.0 113.0,240.5 112.5,240.0 112.0,239.5 111.5,239.0 111.5,238.0 111.0,237.5 110.5,237.0 110.5,236.0 110.0,235.5 109.5,235.0 109.5,234.0 109.0,233.5 108.5,233.0 108.5,232.0 108.0,231.5 107.5,231.0 107.5,230.0 107.0,229.5 106.5,229.0 106.5,228.0 106.5,227.0 106.0,226.5 105.5,226.0 105.5,225.0 105.5,224.0 105.5,223.0 105.5,222.0 106.0,221.5 107.0,221.5 108.0,221.5 108.5,222.0 109.0,222.5 110.0,222.5 110.5,223.0 111.0,223.5 111.5,224.0 112.0,224.5 113.0,224.5 113.5,225.0 114.0,225.5 114.5,226.0 115.0,226.5 116.0,226.5 116.5,227.0 117.0,227.5 117.5,228.0 118.0,228.5 118.5,229.0 119.0,229.5 119.5,230.0 120.0,230.5 121.0,230.5 121.5,231.0 122.0,231.5 122.5,232.0 123.0,232.5 124.0,232.5 124.5,233.0 125.0,233.5 126.0,233.5 126.5,234.0 127.0,234.5 127.5,235.0 128.0,235.5 129.0,235.5 129.5,236.0 130.0,236.5 130.5,237.0 131.0,237.5 132.0,237.5 132.5,238.0 133.0,238.5 133.5,239.0 134.0,239.5 135.0,239.5 135.5,240.0 136.0,240.5 136.5,241.0 137.0,241.5 138.0,241.5 138.5,242.0 139.0,242.5 139.5,243.0 140.0,243.5 141.0,243.5 141.5,244.0 142.0,244.5 143.0,244.5 143.5,245.0 144.0,245.5 145.0,245.5 145.5,246.0 146.0,246.5 146.5,247.0 147.0,247.5 148.0,247.5 148.5,248.0 149.0,248.5 149.5,249.0 150.0,249.5 151.0,249.5 151.5,250.0 152.0,250.5 153.0,250.5 153.5,251.0 154.0,251.5 154.5,252.0 155.0,252.5 156.0,252.5 156.5,253.0 157.0,253.5 158.0,253.5 158.5,254.0 159.0,254.5 159.5,255.0 160.0,255.5 161.0,255.5 161.5,256.0 162.0,256.5 163.0,256.5 163.5,257.0 164.0,257.5 164.5,258.0 165.0,258.5 166.0,258.5 166.5,259.0 167.0,259.5 168.0,259.5 168.5,260.0 169.0,260.5 170.0,260.5 170.5,261.0 171.0,261.5 171.5,262.0 172.0,262.5 173.0,262.5 173.5,263.0 174.0,263.5 175.0,263.5 175.5,264.0 176.0,264.5 177.0,264.5 177.5,265.0 178.0,265.5 178.5,266.0 179.0,266.5 180.0,266.5 180.5,267.0 181.0,267.5 182.0,267.5 182.5,268.0 183.0,268.5 184.0,268.5 184.5,269.0 185.0,269.5 186.0,269.5 186.5,270.0 187.0,270.5 187.5,271.0 188.0,271.5 189.0,271.5 189.5,272.0 190.0,272.5 191.0,272.5 191.5,273.0 192.0,273.5 193.0,273.5 193.5,274.0 194.0,274.5 194.5,274.0 194.0,273.5 193.5,273.0 193.0,272.5 192.5,272.0 192.0,271.5 191.5,271.0 191.0,270.5 190.0,270.5 189.5,270.0 189.0,269.5 188.5,269.0 188.0,268.5 187.0,268.5 186.5,268.0 186.0,267.5 185.5,267.0 185.0,266.5 184.0,266.5 183.5,266.0 183.0,265.5 182.5,265.0 182.0,264.5 181.0,264.5 180.5,264.0 180.0,263.5 179.5,263.0 179.0,262.5 178.0,262.5 177.5,262.0 177.0,261.5 176.5,261.0 176.0,260.5 175.5,260.0 175.0,259.5 174.0,259.5 173.5,259.0 173.0,258.5 172.5,258.0 172.0,257.5 171.5,257.0 171.0,256.5 170.0,256.5 169.5,256.0 169.0,255.5 168.5,255.0 168.0,254.5 167.0,254.5 166.5,254.0 166.0,253.5 165.5,253.0 165.0,252.5 164.5,252.0 164.0,251.5 163.0,251.5 162.5,251.0 162.0,250.5 161.5,250.0 161.0,249.5 160.5,249.0 160.0,248.5 159.5,248.0 159.0,247.5 158.5,247.0 158.0,246.5 157.5,246.0 157.0,245.5 156.0,245.5 155.5,245.0 155.0,244.5 154.5,244.0 154.0,243.5 153.5,243.0 153.0,242.5 152.5,242.0 152.0,241.5 151.5,241.0 151.0,240.5 150.0,240.5 149.5,240.0 149.0,239.5 148.5,239.0 148.0,238.5 147.5,238.0 147.0,237.5 146.5,237.0 146.0,236.5 145.5,236.0 145.0,235.5 144.5,235.0 144.0,234.5 143.5,234.0 143.0,233.5 142.5,233.0 142.0,232.5 141.5,232.0 141.0,231.5 140.5,231.0 140.0,230.5 139.5,230.0 139.0,229.5 138.5,229.0 138.0,228.5 137.5,228.0 137.0,227.5 136.5,227.0 136.0,226.5 135.5,226.0 135.0,225.5 134.5,225.0 134.0,224.5 133.5,224.0 133.0,223.5 132.5,223.0 132.0,222.5 131.5,222.0 131.0,221.5 130.5,221.0 130.0,220.5 129.5,220.0 129.0,219.5 128.5,219.0 128.5,218.0 128.0,217.5 127.5,217.0 127.0,216.5 126.5,216.0 126.0,215.5 125.5,215.0 125.0,214.5 124.5,214.0 124.0,213.5 123.5,213.0 123.5,212.0 123.0,211.5 122.5,211.0 122.0,210.5 121.5,210.0 121.0,209.5 120.5,209.0 120.5,208.0 120.0,207.5 119.5,207.0 119.0,206.5 118.5,206.0 118.0,205.5 117.5,205.0 117.5,204.0 117.0,203.5 116.5,203.0 116.0,202.5 115.5,202.0 115.5,201.0 115.0,200.5 114.5,200.0 114.0,199.5 113.5,199.0 113.5,198.0 113.0,197.5 112.5,197.0 112.5,196.0 112.0,195.5 111.5,195.0 111.0,194.5 110.5,194.0 110.5,193.0 110.0,192.5 109.5,192.0 109.5,191.0 109.0,190.5 108.5,190.0 108.0,189.5 107.5,189.0 107.5,188.0 107.0,187.5 106.5,187.0 106.5,186.0 106.0,185.5 105.5,185.0 105.5,184.0 105.0,183.5 104.5,183.0 104.5,182.0 104.0,181.5 103.5,181.0 103.5,180.0 103.0,179.5 102.5,179.0 102.5,178.0 102.0,177.5 101.5,177.0 101.5,176.0 101.5,175.0 101.0,174.5 100.5,174.0 100.5,173.0 100.0,172.5 99.5,172.0 99.5,171.0 99.5,170.0 99.0,169.5 98.5,169.0 98.5,168.0 98.5,167.0 98.5,166.0 98.0,165.5 97.5,165.0 97.5,164.0 97.5,163.0 97.0,162.5 96.5,162.0 96.5,161.0 96.5,160.0 96.5,159.0 96.0,158.5 95.5,158.0 95.5,157.0 95.5,156.0 95.5,155.0 95.5,154.0 95.5,153.0 95.0,152.5 94.5,152.0 94.5,151.0 94.5,150.0 94.5,149.0 95.0,148.5 95.5,148.0 95.5,147.0 95.5,146.0 96.0,145.5 97.0,145.5 97.5,146.0 98.0,146.5 99.0,146.5 99.5,147.0 99.5,148.0 100.0,148.5 100.5,149.0 101.0,149.5 102.0,149.5 102.5,150.0 102.5,151.0 103.0,151.5 103.5,152.0 104.0,152.5 104.5,153.0 105.0,153.5 105.5,154.0 106.0,154.5 106.5,155.0 107.0,155.5 107.5,156.0 108.0,156.5 108.5,157.0 109.0,157.5 109.5,158.0 110.0,158.5 110.5,159.0 111.0,159.5 111.5,160.0 112.0,160.5 112.5,161.0 113.0,161.5 113.5,162.0 114.0,162.5 114.5,163.0 115.0,163.5 115.5,164.0 116.0,164.5 116.5,165.0 117.0,165.5 117.5,166.0 117.5,167.0 118.0,167.5 119.0,167.5 119.5,168.0 120.0,168.5 120.5,169.0 120.5,170.0 121.0,170.5 122.0,170.5 122.5,171.0 123.0,171.5 123.5,172.0 124.0,172.5 124.5,173.0 124.5,174.0 125.0,174.5 126.0,174.5 126.5,175.0 127.0,175.5 127.5,176.0 127.5,177.0 128.0,177.5 128.5,178.0 129.0,178.5 129.5,179.0 130.0,179.5 131.0,179.5 131.5,180.0 132.0,180.5 132.5,181.0 133.0,181.5 133.5,182.0 134.0,182.5 134.5,183.0 135.0,183.5 135.5,184.0 136.0,184.5 136.5,185.0 137.0,185.5 137.5,186.0 138.0,186.5 138.5,187.0 139.0,187.5 139.5,188.0 140.0,188.5 140.5,189.0 141.0,189.5 141.5,190.0 142.0,190.5 142.5,191.0 143.0,191.5 143.5,192.0 144.0,192.5 144.5,193.0 145.0,193.5 145.5,194.0 146.0,194.5 146.5,195.0 147.0,195.5 147.5,196.0 148.0,196.5 148.5,197.0 149.0,197.5 150.0,197.5 150.5,198.0 151.0,198.5 151.5,199.0 152.0,199.5 152.5,200.0 153.0,200.5 153.5,201.0 154.0,201.5 154.5,202.0 155.0,202.5 155.5,203.0 156.0,203.5 156.5,204.0 157.0,204.5 157.5,205.0 158.0,205.5 158.5,206.0 159.0,206.5 159.5,207.0 160.0,207.5 160.5,208.0 161.0,208.5 162.0,208.5 162.5,209.0 163.0,209.5 163.5,210.0 164.0,210.5 164.5,211.0 165.0,211.5 165.5,212.0 166.0,212.5 166.5,213.0 167.0,213.5 167.5,214.0 168.0,214.5 168.5,215.0 169.0,215.5 170.0,215.5 170.5,216.0 171.0,216.5 171.5,217.0 172.0,217.5 172.5,218.0 173.0,218.5 173.5,219.0 174.0,219.5 174.5,220.0 175.0,220.5 175.5,221.0 176.0,221.5 176.5,222.0 177.0,222.5 178.0,222.5 178.5,223.0 179.0,223.5 179.5,224.0 180.0,224.5 180.5,225.0 181.0,225.5 182.0,225.5 182.5,226.0 183.0,226.5 183.5,227.0 184.0,227.5 184.5,228.0 185.0,228.5 185.5,229.0 186.0,229.5 187.0,229.5 187.5,230.0 188.0,230.5 188.5,231.0 189.0,231.5 189.5,232.0 190.0,232.5 190.5,232.0 190.5,231.0 190.0,230.5 189.5,230.0 189.0,229.5 188.5,229.0 188.0,228.5 187.5,228.0 187.0,227.5 186.5,227.0 186.0,226.5 185.5,226.0 185.0,225.5 184.5,225.0 184.5,224.0 184.0,223.5 183.5,223.0 183.0,222.5 182.5,222.0 182.0,221.5 181.5,221.0 181.0,220.5 180.5,220.0 180.0,219.5 179.5,219.0 179.0,218.5 178.5,218.0 178.0,217.5 177.5,217.0 177.0,216.5 176.5,216.0 176.0,215.5 175.5,215.0 175.0,214.5 174.5,214.0 174.5,213.0 174.0,212.5 173.5,212.0 173.0,211.5 172.5,211.0 172.0,210.5 171.5,210.0 171.0,209.5 170.5,209.0 170.0,208.5 169.5,208.0 169.5,207.0 169.0,206.5 168.5,206.0 168.0,205.5 167.5,205.0 167.0,204.5 166.5,204.0 166.5,203.0 166.0,202.5 165.5,202.0 165.0,201.5 164.5,201.0 164.0,200.5 163.5,200.0 163.0,199.5 162.5,199.0 162.5,198.0 162.0,197.5 161.5,197.0 161.0,196.5 160.5,196.0 160.5,195.0 160.0,194.5 159.5,194.0 159.0,193.5 158.5,193.0 158.5,192.0 158.0,191.5 157.5,191.0 157.0,190.5 156.5,190.0 156.5,189.0 156.0,188.5 155.5,188.0 155.0,187.5 154.5,187.0 154.5,186.0 154.0,185.5 153.5,185.0 153.0,184.5 152.5,184.0 152.5,183.0 152.0,182.5 151.5,182.0 151.5,181.0 151.0,180.5 150.5,180.0 150.0,179.5 149.5,179.0 149.5,178.0 149.0,177.5 148.5,177.0 148.5,176.0 148.0,175.5 147.5,175.0 147.5,174.0 147.0,173.5 146.5,173.0 146.5,172.0 146.0,171.5 145.5,171.0 145.5,170.0 145.0,169.5 144.5,169.0 144.5,168.0 144.0,167.5 143.5,167.0 143.0,166.5 142.5,166.0 142.5,165.0 142.5,164.0 142.0,163.5 141.5,163.0 141.5,162.0 141.0,161.5 140.5,161.0 140.5,160.0 140.0,159.5 139.5,159.0 139.5,158.0 139.5,157.0 139.0,156.5 138.5,156.0 138.5,155.0 138.5,154.0 138.0,153.5 137.5,153.0 137.5,152.0 137.0,151.5 136.5,151.0 136.5,150.0 136.5,149.0 136.0,148.5 135.5,148.0 135.5,147.0 135.5,146.0 135.5,145.0 135.0,144.5 134.5,144.0 134.5,143.0 134.5,142.0 134.0,141.5 133.5,141.0 133.5,140.0 133.5,139.0 133.5,138.0 133.5,137.0 133.5,136.0 133.0,135.5 132.5,135.0 132.5,134.0 132.5,133.0 132.5,132.0 132.5,131.0 132.5,130.0 132.5,129.0 132.0,128.5 131.5,128.0 131.5,127.0 131.5,126.0 131.5,125.0 131.5,124.0 131.5,123.0 131.5,122.0 132.0,121.5 132.5,121.0 132.5,120.0 132.5,119.0 133.0,118.5 133.5,118.0 133.5,117.0 134.0,116.5 135.0,116.5 135.5,117.0 136.0,117.5 137.0,117.5 137.5,118.0 137.5,119.0 138.0,119.5 138.5,120.0 139.0,120.5 139.5,121.0 140.0,121.5 140.5,122.0 141.0,122.5 141.5,123.0 141.5,124.0 142.0,124.5 142.5,125.0 143.0,125.5 143.5,126.0 143.5,127.0 144.0,127.5 144.5,128.0 144.5,129.0 145.0,129.5 145.5,130.0 146.0,130.5 146.5,131.0 147.0,131.5 147.5,132.0 147.5,133.0 148.0,133.5 148.5,134.0 149.0,134.5 149.5,135.0 149.5,136.0 150.0,136.5 150.5,137.0 151.0,137.5 151.5,138.0 151.5,139.0 152.0,139.5 152.5,140.0 153.0,140.5 153.5,141.0 153.5,142.0 154.0,142.5 154.5,143.0 155.0,143.5 155.5,144.0 155.5,145.0 156.0,145.5 156.5,146.0 157.0,146.5 157.5,147.0 157.5,148.0 158.0,148.5 158.5,149.0 159.0,149.5 159.5,150.0 160.0,150.5 160.5,151.0 160.5,152.0 161.0,152.5 161.5,153.0 162.0,153.5 162.5,154.0 163.0,154.5 163.5,155.0 164.0,155.5 164.5,156.0 164.5,157.0 165.0,157.5 165.5,158.0 166.0,158.5 166.5,159.0 167.0,159.5 167.5,160.0 168.0,160.5 168.5,161.0 168.5,162.0 169.0,162.5 169.5,163.0 170.0,163.5 170.5,164.0 171.0,164.5 171.5,165.0 172.0,165.5 172.5,166.0 172.5,167.0 173.0,167.5 173.5,168.0 174.0,168.5 174.5,169.0 175.0,169.5 175.5,170.0 175.5,171.0 176.0,171.5 176.5,172.0 177.0,172.5 177.5,173.0 178.0,173.5 178.5,174.0 179.0,174.5 179.5,175.0 180.0,175.5 180.5,176.0 181.0,176.5 181.5,177.0 181.5,178.0 182.0,178.5 183.0,178.5 183.5,179.0 183.5,180.0 184.0,180.5 184.5,181.0 185.0,181.5 185.5,182.0 186.0,182.5 186.5,183.0 187.0,183.5 187.5,184.0 188.0,184.5 188.5,185.0 189.0,185.5 189.5,186.0 190.0,186.5 190.5,187.0 191.0,187.5 191.5,188.0 191.5,189.0 192.0,189.5 192.5,190.0 193.0,190.5 193.5,191.0 194.0,191.5 194.5,192.0 195.0,192.5 195.5,193.0 196.0,193.5 196.5,194.0 197.0,194.5 197.5,195.0 198.0,195.5 198.5,196.0 199.0,196.5 199.5,197.0 200.0,197.5 200.5,198.0 201.0,198.5 201.5,199.0 202.0,199.5 202.5,200.0 203.0,200.5 203.5,201.0 204.0,201.5 204.5,202.0 204.5,203.0 205.0,203.5 206.0,203.5 206.5,204.0 207.0,204.5 207.5,205.0 207.5,206.0 208.0,206.5 208.5,207.0 209.0,207.5 210.0,207.5 210.5,208.0 211.0,208.5 211.5,209.0 212.0,209.5 212.5,210.0 212.5,211.0 213.0,211.5 213.5,212.0 214.0,212.5 214.5,213.0 215.0,213.5 215.5,214.0 216.0,214.5 216.5,215.0 217.0,215.5 218.0,215.5 218.5,216.0 218.5,217.0 219.0,217.5 219.5,218.0 220.0,218.5 220.5,219.0 221.0,219.5 222.0,219.5 222.5,220.0 223.0,220.5 223.5,221.0 223.5,222.0 224.0,222.5 224.5,223.0 225.0,223.5 226.0,223.5 226.5,224.0 227.0,224.5 227.5,225.0 228.0,225.5 228.5,226.0 229.0,226.5 229.5,227.0 230.0,227.5 230.5,228.0 231.0,228.5 231.5,229.0 232.0,229.5 232.5,230.0 233.0,230.5 233.5,231.0 234.0,231.5 234.5,232.0 235.0,232.5 235.5,233.0 236.0,233.5 236.5,234.0 237.0,234.5 237.5,235.0 238.0,235.5 238.5,236.0 239.0,236.5 239.5,237.0 240.0,237.5 240.5,238.0 241.0,238.5 242.0,238.5 242.5,239.0 243.0,239.5 243.5,240.0 244.0,240.5 244.5,241.0 245.0,241.5 245.5,242.0 246.0,242.5 246.5,243.0 247.0,243.5 247.5,244.0 248.0,244.5 249.0,244.5 249.5,245.0 250.0,245.5 250.5,246.0 251.0,246.5 251.5,247.0 252.0,247.5 252.5,248.0 253.0,248.5 253.5,249.0 254.0,249.5 254.5,250.0 255.0,250.5 255.5,251.0 256.0,251.5 257.0,251.5 257.5,252.0 258.0,252.5 258.5,253.0 259.0,253.5 259.5,254.0 260.0,254.5 260.5,255.0 261.0,255.5 262.0,255.5 262.5,256.0 263.0,256.5 263.5,257.0 264.0,257.5 264.5,258.0 265.0,258.5 265.5,259.0 266.0,259.5 266.5,260.0 267.0,260.5 267.5,261.0 268.0,261.5 269.0,261.5 269.5,262.0 270.0,262.5 270.5,263.0 271.0,263.5 271.5,264.0 272.0,264.5 272.5,265.0 273.0,265.5 273.5,266.0 274.0,266.5 275.0,266.5 275.5,267.0 276.0,267.5 276.5,268.0 277.0,268.5 277.5,269.0 278.0,269.5 278.5,270.0 279.0,270.5 280.0,270.5 280.5,271.0 281.0,271.5 281.5,272.0 282.0,272.5 282.5,273.0 283.0,273.5 283.5,274.0 284.0,274.5 285.0,274.5 285.5,275.0 286.0,275.5 286.5,276.0 287.0,276.5 287.5,277.0 288.0,277.5 289.0,277.5 289.5,278.0 290.0,278.5 290.5,279.0 291.0,279.5 291.5,280.0 292.0,280.5 293.0,280.5 293.5,281.0 294.0,281.5 294.5,282.0 295.0,282.5 296.0,282.5 296.5,283.0 297.0,283.5 297.5,284.0 298.0,284.5 299.0,284.5 299.5,285.0 300.0,285.5 300.5,286.0 301.0,286.5 301.5,287.0 302.0,287.5 303.0,287.5 303.5,288.0 304.0,288.5 304.5,289.0 305.0,289.5 305.5,290.0 306.0,290.5 307.0,290.5 307.5,291.0 308.0,291.5 308.5,292.0 309.0,292.5 310.0,292.5 310.5,293.0 311.0,293.5 311.5,294.0 312.0,294.5 312.5,295.0 313.0,295.5 314.0,295.5 314.5,296.0 315.0,296.5 316.0,296.5 316.5,297.0 317.0,297.5 317.5,298.0 318.0,298.5 318.5,299.0 319.0,299.5 319.5,300.0 320.0,300.5 321.0,300.5 321.5,301.0 322.0,301.5 322.5,302.0 323.0,302.5 324.0,302.5 324.5,303.0 325.0,303.5 325.5,304.0 326.0,304.5 327.0,304.5 327.5,305.0 328.0,305.5 328.5,306.0 329.0,306.5 329.5,307.0 330.0,307.5 331.0,307.5 331.5,308.0 332.0,308.5 332.5,309.0 333.0,309.5 333.5,310.0 334.0,310.5 335.0,310.5 335.5,311.0 336.0,311.5 336.5,312.0 337.0,312.5 337.5,313.0 338.0,313.5 339.0,313.5 339.5,314.0 340.0,314.5 340.5,315.0 341.0,315.5 342.0,315.5 342.5,316.0 343.0,316.5 343.5,317.0 344.0,317.5 344.5,318.0 345.0,318.5 345.5,319.0 346.0,319.5 347.0,319.5 347.5,320.0 348.0,320.5 348.5,321.0 349.0,321.5 349.5,322.0 350.0,322.5 351.0,322.5 351.5,323.0 351.5,324.0 352.0,324.5 353.0,324.5 353.5,325.0 354.0,325.5 354.5,326.0 355.0,326.5 355.5,327.0 356.0,327.5 356.5,328.0 357.0,328.5 358.0,328.5 358.5,329.0 359.0,329.5 359.5,330.0 360.0,330.5 360.5,331.0 361.0,331.5 361.5,332.0 362.0,332.5 362.5,333.0 363.0,333.5 363.5,334.0 364.0,334.5 364.5,335.0 365.0,335.5 366.0,335.5 366.5,336.0 367.0,336.5 367.5,337.0 368.0,337.5 368.5,338.0 369.0,338.5 369.5,339.0 370.0,339.5 370.5,340.0 371.0,340.5 371.5,341.0 372.0,341.5 372.5,342.0 373.0,342.5 373.5,343.0 374.0,343.5 374.5,344.0 375.0,344.5 376.0,344.5 376.5,345.0 377.0,345.5 377.5,346.0 378.0,346.5 378.5,347.0 379.0,347.5 379.5,348.0 380.0,348.5 380.5,349.0 381.0,349.5 381.5,350.0 382.0,350.5 382.5,351.0 383.0,351.5 383.5,352.0 384.0,352.5 384.5,353.0 385.0,353.5 385.5,354.0 386.0,354.5 386.5,355.0 387.0,355.5 387.5,356.0 388.0,356.5 388.5,357.0 389.0,357.5 389.5,358.0 390.0,358.5 390.5,359.0 391.0,359.5 391.5,360.0 392.0,360.5 392.5,361.0 393.0,361.5 393.5,362.0 394.0,362.5 394.5,363.0 395.0,363.5 395.5,364.0 396.0,364.5 396.5,365.0 397.0,365.5 397.5,366.0 398.0,366.5 398.5,367.0 399.0,367.5 399.5,368.0 400.0,368.5 400.5,369.0 401.0,369.5 401.5,370.0 402.0,370.5 402.5,371.0 403.0,371.5 403.5,372.0 404.0,372.5 404.5,373.0 405.0,373.5 405.5,374.0 406.0,374.5 406.5,375.0 407.0,375.5 407.5,376.0 408.0,376.5 408.5,377.0 409.0,377.5 409.5,378.0 410.0,378.5 410.5,379.0 411.0,379.5 411.5,380.0 412.0,380.5 412.5,381.0 413.0,381.5 413.5,382.0 413.5,383.0 414.0,383.5 415.0,383.5 415.5,384.0 416.0,384.5 416.5,385.0 416.5,386.0 417.0,386.5 417.5,387.0 418.0,387.5 418.5,388.0 419.0,388.5 419.5,389.0 420.0,389.5 420.5,390.0 421.0,390.5 421.5,391.0 422.0,391.5 422.5,392.0 423.0,392.5 423.5,393.0 424.0,393.5 424.5,394.0 425.0,394.5 425.5,395.0 426.0,395.5 426.5,396.0 427.0,396.5 427.5,397.0 428.0,397.5 428.5,398.0 429.0,398.5 429.5,399.0 430.0,399.5 430.5,400.0 431.0,400.5 431.5,401.0 432.0,401.5 432.5,402.0 433.0,402.5 433.5,403.0 434.0,403.5 434.5,404.0 435.0,404.5 435.5,405.0 436.0,405.5 436.5,406.0 437.0,406.5 437.5,407.0 438.0,407.5 438.5,408.0 438.5,409.0 439.0,409.5 439.5,410.0 440.0,410.5 440.5,410.0 441.0,409.5 442.0,409.5 442.5,409.0 443.0,408.5 444.0,408.5 445.0,408.5 445.5,408.0 446.0,407.5 447.0,407.5 448.0,407.5 448.5,407.0 449.0,406.5 450.0,406.5 451.0,406.5 452.0,406.5 452.5,406.0 453.0,405.5 454.0,405.5 455.0,405.5 456.0,405.5 457.0,405.5 458.0,405.5 459.0,405.5 460.0,405.5 460.5,405.0 460.5,404.0 461.0,403.5 461.5,403.0 462.0,402.5 462.5,402.0 463.0,401.5 463.5,401.0 463.5,400.0 464.0,399.5 464.5,399.0 465.0,398.5 465.5,398.0 466.0,397.5 466.5,397.0 466.5,396.0 467.0,395.5 467.5,395.0 468.0,394.5 468.5,394.0 469.0,393.5 469.5,393.0 469.5,392.0 470.0,391.5 470.5,391.0 471.0,390.5 471.5,390.0 472.0,389.5 472.5,389.0 472.5,388.0 473.0,387.5 473.5,387.0 474.0,386.5 474.5,386.0 474.5,385.0 475.0,384.5 475.5,384.0 476.0,383.5 476.5,383.0 477.0,382.5 477.5,382.0 477.5,381.0 478.0,380.5 478.5,380.0 479.0,379.5 479.5,379.0 479.5,378.0 480.0,377.5 480.5,377.0 481.0,376.5 481.5,376.0 482.0,375.5 482.5,375.0 482.5,374.0 483.0,373.5 483.5,373.0 484.0,372.5 484.5,372.0 485.0,371.5 485.5,371.0 485.5,370.0 486.0,369.5 486.5,369.0 487.0,368.5 487.5,368.0 487.5,367.0 488.0,366.5 488.5,366.0 488.5,365.0 489.0,364.5 489.5,364.0 490.0,363.5 490.5,363.0 490.5,362.0 491.0,361.5 491.5,361.0 492.0,360.5 492.5,360.0 492.5,359.0 493.0,358.5 493.5,358.0 494.0,357.5 494.5,357.0 494.5,356.0 495.0,355.5 495.5,355.0 496.0,354.5 496.5,354.0 496.5,353.0 497.0,352.5 497.5,352.0 497.5,351.0 498.0,350.5 498.5,350.0 499.0,349.5 499.5,349.0 500.0,348.5 500.5,348.0 500.5,347.0 501.0,346.5 501.5,346.0 502.0,345.5 502.5,345.0 502.5,344.0 503.0,343.5 503.5,343.0 504.0,342.5 504.5,342.0 504.5,341.0 505.0,340.5 505.5,340.0 506.0,339.5 506.5,339.0 506.5,338.0 507.0,337.5 507.5,337.0 508.0,336.5 508.5,336.0 509.0,335.5 509.5,335.0 509.5,334.0 510.0,333.5 510.5,333.0 511.0,332.5 511.5,332.0 511.5,331.0 512.0,330.5 512.5,330.0 513.0,329.5 513.5,329.0 513.5,328.0 514.0,327.5 514.5,327.0 515.0,326.5 515.5,326.0 516.0,325.5 516.5,325.0 516.5,324.0 517.0,323.5 517.5,323.0 518.0,322.5 518.5,322.0 519.0,321.5 519.5,321.0 519.5,320.0 520.0,319.5 520.5,319.0 521.0,318.5 521.5,318.0 522.0,317.5 522.5,317.0 523.0,316.5 523.5,316.0 524.0,315.5 524.5,315.0 525.0,314.5 525.5,314.0 526.0,313.5 526.5,313.0 527.0,312.5 527.5,312.0 528.0,311.5 528.5,311.0 528.5,310.0 529.0,309.5 529.5,309.0 530.0,308.5 530.5,308.0 531.0,307.5 531.5,307.0 532.0,306.5 532.5,306.0 533.0,305.5 534.0,305.5 534.5,305.0 535.0,304.5 535.5,304.0 536.0,303.5 536.5,303.0 537.0,302.5 537.5,302.0 538.0,301.5 538.5,301.0 539.0,300.5 539.5,300.0 540.0,299.5 540.5,299.0 541.0,298.5 541.5,298.0 542.0,297.5 543.0,297.5 543.5,297.0 544.0,296.5 544.5,296.0 545.0,295.5 545.5,295.0 546.0,294.5 546.5,294.0 547.0,293.5 548.0,293.5 548.5,293.0 549.0,292.5 549.5,292.0 550.0,291.5 550.5,291.0 551.0,290.5 551.5,290.0 552.0,289.5 553.0,289.5 553.5,289.0 554.0,288.5 554.5,288.0 555.0,287.5 555.5,287.0 556.0,286.5 557.0,286.5 557.5,286.0 558.0,285.5 559.0,285.5 559.5,285.0 560.0,284.5 560.5,284.0 561.0,283.5 561.5,283.0 562.0,282.5 563.0,282.5 563.5,282.0 564.0,281.5 564.5,281.0 565.0,280.5 566.0,280.5 566.5,280.0 567.0,279.5 567.5,279.0 568.0,278.5 568.5,278.0 569.0,277.5 570.0,277.5 570.5,277.0 571.0,276.5 571.5,276.0 572.0,275.5 573.0,275.5 573.5,275.0 574.0,274.5 574.5,274.0 575.0,273.5 576.0,273.5 576.5,273.0 577.0,272.5 577.5,272.0 578.0,271.5 579.0,271.5 579.5,271.0 580.0,270.5 580.5,270.0 581.0,269.5 582.0,269.5 582.5,269.0 583.0,268.5 583.5,268.0 584.0,267.5 585.0,267.5 585.5,267.0 586.0,266.5 586.5,266.0 587.0,265.5 588.0,265.5 588.5,265.0 589.0,264.5 590.0,264.5 590.5,264.0 591.0,263.5 591.5,263.0 592.0,262.5 592.5,262.0 593.0,261.5 594.0,261.5 594.5,261.0 595.0,260.5 595.5,260.0 596.0,259.5 597.0,259.5 597.5,259.0 598.0,258.5 599.0,258.5 599.5,258.0 600.0,257.5 600.5,257.0 601.0,256.5 602.0,256.5 602.5,256.0 603.0,255.5 603.5,255.0 604.0,254.5 605.0,254.5 605.5,254.0 606.0,253.5 607.0,253.5 607.5,253.0 608.0,252.5 609.0,252.5 609.5,252.0 610.0,251.5 610.5,251.0 611.0,250.5 612.0,250.5 612.5,250.0 613.0,249.5 614.0,249.5 614.5,249.0 615.0,248.5 615.5,248.0 616.0,247.5 617.0,247.5 617.5,247.0 618.0,246.5 619.0,246.5 619.5,246.0 620.0,245.5 620.5,245.0 621.0,244.5 622.0,244.5 622.5,244.0 623.0,243.5 623.5,243.0 624.0,242.5 625.0,242.5 625.5,242.0 626.0,241.5 626.5,241.0 627.0,240.5 627.5,240.0 628.0,239.5 629.0,239.5 629.5,239.0 630.0,238.5 630.5,238.0 631.0,237.5 631.5,237.0 632.0,236.5 633.0,236.5 633.5,236.0 634.0,235.5 634.5,235.0 635.0,234.5 635.5,234.0 636.0,233.5 636.5,233.0 637.0,232.5 638.0,232.5 638.5,232.0 639.0,231.5 639.5,231.0 640.0,230.5 640.5,230.0 641.0,229.5 641.5,229.0 642.0,228.5 642.5,228.0 643.0,227.5 643.5,227.0 644.0,226.5 644.5,226.0 645.0,225.5 645.5,225.0 646.0,224.5 646.5,224.0 647.0,223.5 647.5,223.0 648.0,222.5 648.5,222.0 649.0,221.5 650.0,221.5 650.5,221.0 651.0,220.5 651.5,220.0 652.0,219.5 652.5,219.0 653.0,218.5 653.5,218.0 654.0,217.5 654.5,217.0 655.0,216.5 655.5,216.0 656.0,215.5 656.5,215.0 657.0,214.5 657.5,214.0 658.0,213.5 658.5,213.0 659.0,212.5 659.5,212.0 660.0,211.5 660.5,211.0 661.0,210.5 661.5,210.0 662.0,209.5 662.5,209.0 663.0,208.5 664.0,208.5 664.5,208.0 665.0,207.5 665.5,207.0 666.0,206.5 666.5,206.0 667.0,205.5 667.5,205.0 668.0,204.5 668.5,204.0 669.0,203.5 669.5,203.0 670.0,202.5 670.5,202.0 671.0,201.5 671.5,201.0 672.0,200.5 672.5,200.0 673.0,199.5 673.5,199.0 674.0,198.5 674.5,198.0 675.0,197.5 675.5,197.0 676.0,196.5 676.5,196.0 677.0,195.5 677.5,195.0 678.0,194.5 678.5,194.0 679.0,193.5 679.5,193.0 680.0,192.5 680.5,192.0 681.0,191.5 681.5,191.0 682.0,190.5 682.5,190.0 683.0,189.5 683.5,189.0 684.0,188.5 684.5,188.0 685.0,187.5 685.5,187.0 686.0,186.5 686.5,186.0 687.0,185.5 687.5,185.0 688.0,184.5 688.5,184.0 688.5,183.0 689.0,182.5 689.5,182.0 690.0,181.5 690.5,181.0 691.0,180.5 691.5,180.0 692.0,179.5 692.5,179.0 693.0,178.5 693.5,178.0 694.0,177.5 694.5,177.0 695.0,176.5 695.5,176.0 696.0,175.5 696.5,175.0 697.0,174.5 697.5,174.0 697.5,173.0 698.0,172.5 698.5,172.0 699.0,171.5 699.5,171.0 700.0,170.5 700.5,170.0 701.0,169.5 701.5,169.0 702.0,168.5 702.5,168.0 703.0,167.5 703.5,167.0 703.5,166.0 704.0,165.5 704.5,165.0 705.0,164.5 705.5,164.0 706.0,163.5 706.5,163.0 707.0,162.5 707.5,162.0 707.5,161.0 708.0,160.5 708.5,160.0 709.0,159.5 709.5,159.0 710.0,158.5 710.5,158.0 710.5,157.0 711.0,156.5 711.5,156.0 712.0,155.5 712.5,155.0 713.0,154.5 713.5,154.0 714.0,153.5 714.5,153.0 715.0,152.5 715.5,152.0 715.5,151.0 716.0,150.5 716.5,150.0 717.0,149.5 717.5,149.0 718.0,148.5 718.5,148.0 719.0,147.5 719.5,147.0 719.5,146.0 720.0,145.5 720.5,145.0 721.0,144.5 721.5,144.0 722.0,143.5 722.5,143.0 722.5,142.0 723.0,141.5 723.5,141.0 724.0,140.5 724.5,140.0 725.0,139.5 725.5,139.0 725.5,138.0 726.0,137.5 726.5,137.0 727.0,136.5 727.5,136.0 728.0,135.5 728.5,135.0 728.5,134.0 729.0,133.5 729.5,133.0 730.0,132.5 730.5,132.0 731.0,131.5 731.5,131.0 731.5,130.0 732.0,129.5 732.5,129.0 733.0,128.5 733.5,128.0 734.0,127.5 734.5,127.0 734.5,126.0 735.0,125.5 735.5,125.0 736.0,124.5 736.5,124.0 736.5,123.0 737.0,122.5 737.5,122.0 738.0,121.5 738.5,121.0 738.5,120.0 739.0,119.5 739.5,119.0 740.0,118.5 740.5,118.0 740.5,117.0 741.0,116.5 741.5,116.0 742.0,115.5 742.5,115.0 742.5,114.0 743.0,113.5 743.5,113.0 744.0,112.5 744.5,112.0 744.5,111.0 745.0,110.5 745.5,110.0 746.0,109.5 746.5,109.0 746.5,108.0 747.0,107.5 747.5,107.0 747.5,106.0 748.0,105.5 748.5,105.0 749.0,104.5 749.5,104.0 749.5,103.0 750.0,102.5 750.5,102.0 750.5,101.0 751.0,100.5 751.5,100.0 752.0,99.5 752.5,99.0 752.5,98.0 753.0,97.5 753.5,97.0 754.0,96.5 754.5,96.0 755.0,95.5 756.0,95.5 757.0,95.5 758.0,95.5 758.5,96.0 758.5,97.0 758.5,98.0 758.5,99.0 759.0,99.5 759.5,100.0 759.5,101.0 759.5,102.0 759.5,103.0 759.5,104.0 759.5,105.0 759.5,106.0 759.5,107.0 759.5,108.0 759.5,109.0 759.5,110.0 759.5,111.0 759.5,112.0 759.5,113.0 759.0,113.5 758.5,114.0 758.5,115.0 758.5,116.0 758.5,117.0 758.0,117.5 757.5,118.0 757.5,119.0 757.5,120.0 757.5,121.0 757.0,121.5 756.5,122.0 756.5,123.0 756.5,124.0 756.0,124.5 755.5,125.0 755.5,126.0 755.5,127.0 755.0,127.5 754.5,128.0 754.5,129.0 754.5,130.0 754.0,130.5 753.5,131.0 753.5,132.0 753.0,132.5 752.5,133.0 752.5,134.0 752.5,135.0 752.0,135.5 751.5,136.0 751.5,137.0 751.0,137.5 750.5,138.0 750.5,139.0 750.0,139.5 749.5,140.0 749.5,141.0 749.0,141.5 748.5,142.0 748.5,143.0 748.0,143.5 747.5,144.0 747.5,145.0 747.0,145.5 746.5,146.0 746.5,147.0 746.0,147.5 745.5,148.0 745.5,149.0 745.0,149.5 744.5,150.0 744.5,151.0 744.0,151.5 743.5,152.0 743.0,152.5 742.5,153.0 742.5,154.0 742.0,154.5 741.5,155.0 741.5,156.0 741.0,156.5 740.5,157.0 740.5,158.0 740.0,158.5 739.5,159.0 739.0,159.5 738.5,160.0 738.5,161.0 738.0,161.5 737.5,162.0 737.0,162.5 736.5,163.0 736.5,164.0 736.0,164.5 735.5,165.0 735.0,165.5 734.5,166.0 734.0,166.5 733.5,167.0 733.5,168.0 733.0,168.5 732.5,169.0 732.0,169.5 731.5,170.0 731.0,170.5 730.5,171.0 730.5,172.0 730.0,172.5 729.5,173.0 729.0,173.5 728.5,174.0 728.0,174.5 727.5,175.0 727.5,176.0 727.0,176.5 726.5,177.0 726.0,177.5 725.5,178.0 725.0,178.5 724.5,179.0 724.0,179.5 723.5,180.0 723.5,181.0 723.0,181.5 722.5,182.0 722.0,182.5 721.5,183.0 721.0,183.5 720.5,184.0 720.0,184.5 719.5,185.0 719.5,186.0 719.0,186.5 718.5,187.0 718.0,187.5 717.5,188.0 717.0,188.5 716.5,189.0 716.0,189.5 715.5,190.0 715.0,190.5 714.5,191.0 714.0,191.5 713.5,192.0 713.0,192.5 712.5,193.0 712.0,193.5 711.5,194.0 711.5,195.0 711.0,195.5 710.5,196.0 710.0,196.5 709.5,197.0 709.0,197.5 708.5,198.0 708.0,198.5 707.5,199.0 707.0,199.5 706.5,200.0 706.0,200.5 705.5,201.0 705.0,201.5 704.5,202.0 705.0,202.5 705.5,202.0 706.0,201.5 706.5,201.0 707.0,200.5 708.0,200.5 708.5,200.0 709.0,199.5 709.5,199.0 710.0,198.5 710.5,198.0 711.0,197.5 711.5,197.0 712.0,196.5 712.5,196.0 713.0,195.5 713.5,195.0 714.0,194.5 714.5,194.0 715.0,193.5 716.0,193.5 716.5,193.0 717.0,192.5 717.5,192.0 718.0,191.5 718.5,191.0 719.0,190.5 719.5,190.0 720.0,189.5 720.5,189.0 721.0,188.5 722.0,188.5 722.5,188.0 723.0,187.5 723.5,187.0 724.0,186.5 724.5,186.0 725.0,185.5 725.5,185.0 726.0,184.5 726.5,184.0 727.0,183.5 727.5,183.0 728.0,182.5 728.5,182.0 729.0,181.5 729.5,181.0 730.0,180.5 730.5,180.0 731.0,179.5 731.5,179.0 732.0,178.5 732.5,178.0 733.0,177.5 734.0,177.5 734.5,177.0 735.0,176.5 735.5,176.0 736.0,175.5 736.5,175.0 737.0,174.5 737.5,174.0 738.0,173.5 738.5,173.0 739.0,172.5 739.5,172.0 740.0,171.5 740.5,171.0 741.0,170.5 741.5,170.0 742.0,169.5 742.5,169.0 743.0,168.5 743.5,168.0 744.0,167.5 744.5,167.0 745.0,166.5 746.0,166.5 746.5,166.0 747.0,165.5 747.5,165.0 748.0,164.5 748.5,164.0 749.0,163.5 749.5,163.0 750.0,162.5 750.5,162.0 751.0,161.5 751.5,161.0 752.0,160.5 752.5,160.0 753.0,159.5 753.5,159.0 754.0,158.5 754.5,158.0 755.0,157.5 755.5,157.0 756.0,156.5 756.5,156.0 757.0,155.5 757.5,155.0 758.0,154.5 758.5,154.0 759.0,153.5 759.5,153.0 760.0,152.5 760.5,152.0 761.0,151.5 761.5,151.0 762.0,150.5 762.5,150.0 763.0,149.5 763.5,149.0 764.0,148.5 764.5,148.0 765.0,147.5 765.5,147.0 766.0,146.5 766.5,146.0 767.0,145.5 767.5,145.0 768.0,144.5 768.5,144.0 769.0,143.5 769.5,143.0 770.0,142.5 770.5,142.0 771.0,141.5 771.5,141.0 772.0,140.5 772.5,140.0 773.0,139.5 773.5,139.0 774.0,138.5 774.5,138.0 775.0,137.5 775.5,137.0 776.0,136.5 776.5,136.0 777.0,135.5 777.5,135.0 778.0,134.5 778.5,134.0 778.5,133.0 779.0,132.5 779.5,132.0 780.0,131.5 780.5,131.0 781.0,130.5 781.5,130.0 782.0,129.5 782.5,129.0 783.0,128.5 783.5,128.0 784.0,127.5 784.5,127.0 785.0,126.5 785.5,126.0 786.0,125.5 786.5,125.0 787.0,124.5 787.5,124.0 787.5,123.0 788.0,122.5 788.5,122.0 789.0,121.5 789.5,121.0 790.0,120.5 790.5,120.0 791.0,119.5 791.5,119.0 792.0,118.5 792.5,118.0 793.0,117.5 793.5,117.0 793.5,116.0 794.0,115.5 794.5,115.0 795.0,114.5 795.5,114.0 796.0,113.5 796.5,113.0 797.0,112.5 797.5,112.0 798.0,111.5 798.5,111.0 799.0,110.5 799.5,110.0 800.0,109.5 800.5,109.0 800.5,108.0 801.0,107.5 801.5,107.0 802.0,106.5 802.5,106.0 803.0,105.5 803.5,105.0 804.0,104.5 804.5,104.0 805.0,103.5 805.5,103.0 805.5,102.0 806.0,101.5 807.0,101.5 807.5,101.0 808.0,100.5 808.5,100.0 809.0,99.5 809.5,100.0 810.0,100.5 810.5,101.0 811.0,101.5 811.5,102.0 811.5,103.0 811.5,104.0 811.5,105.0 811.5,106.0 811.5,107.0 811.5,108.0 811.5,109.0 811.5,110.0 811.5,111.0 811.5,112.0 811.5,113.0 811.5,114.0 811.5,115.0 811.0,115.5 810.5,116.0 810.5,117.0 810.5,118.0 810.5,119.0 810.0,119.5 809.5,120.0 809.5,121.0 809.5,122.0 809.0,122.5 808.5,123.0 808.5,124.0 808.5,125.0 808.0,125.5 807.5,126.0 807.5,127.0 807.5,128.0 807.0,128.5 806.5,129.0 806.5,130.0 806.5,131.0 806.0,131.5 805.5,132.0 805.0,132.5 804.5,133.0 804.5,134.0 804.5,135.0 804.0,135.5 803.5,136.0 803.5,137.0 803.0,137.5 802.5,138.0 802.0,138.5 801.5,139.0 801.5,140.0 801.0,140.5 800.5,141.0 800.5,142.0 800.0,142.5 799.5,143.0 799.5,144.0 799.0,144.5 798.5,145.0 798.5,146.0 798.0,146.5 797.5,147.0 797.5,148.0 797.0,148.5 796.5,149.0 796.0,149.5 795.5,150.0 795.5,151.0 795.0,151.5 794.5,152.0 794.5,153.0 794.0,153.5 793.5,154.0 793.0,154.5 792.5,155.0 792.5,156.0 792.0,156.5 791.5,157.0 791.0,157.5 790.5,158.0 790.5,159.0 790.0,159.5 789.5,160.0 789.0,160.5 788.5,161.0 788.0,161.5 787.5,162.0 787.5,163.0 787.0,163.5 786.5,164.0 786.0,164.5 785.5,165.0 785.0,165.5 784.5,166.0 784.0,166.5 783.5,167.0 783.5,168.0 783.0,168.5 782.5,169.0 782.0,169.5 781.5,170.0 781.0,170.5 780.5,171.0 780.0,171.5 779.5,172.0 779.0,172.5 778.5,173.0 778.0,173.5 777.5,174.0 777.5,175.0 777.0,175.5 776.5,176.0 776.0,176.5 775.5,177.0 775.0,177.5 774.5,178.0 774.0,178.5 773.5,179.0 773.0,179.5 772.5,180.0 772.0,180.5 771.5,181.0 771.0,181.5 770.5,182.0 770.0,182.5 769.5,183.0 769.0,183.5 768.5,184.0 768.0,184.5 767.5,185.0 767.0,185.5 766.5,186.0 766.0,186.5 765.5,187.0 765.0,187.5 764.5,188.0 764.0,188.5 763.5,189.0 763.0,189.5 762.5,190.0 762.0,190.5 761.5,191.0 761.0,191.5 760.5,192.0 760.0,192.5 759.5,193.0 759.0,193.5 758.5,194.0 758.0,194.5 757.5,195.0 757.0,195.5 756.5,196.0 756.0,196.5 755.5,197.0 755.0,197.5 754.0,197.5 753.5,198.0 753.0,198.5 752.5,199.0 752.0,199.5 751.5,200.0 751.0,200.5 750.5,201.0 750.0,201.5 749.5,202.0 749.0,202.5 748.5,203.0 748.0,203.5 747.5,204.0 747.0,204.5 746.0,204.5 745.5,205.0 745.0,205.5 744.5,206.0 744.0,206.5 743.5,207.0 743.0,207.5 742.5,208.0 742.0,208.5 741.5,209.0 741.0,209.5 740.0,209.5 739.5,210.0 739.0,210.5 738.5,211.0 738.0,211.5 737.5,212.0 737.0,212.5 736.5,213.0 736.0,213.5 735.5,214.0 735.0,214.5 734.0,214.5 733.5,215.0 733.0,215.5 732.5,216.0 732.0,216.5 731.5,217.0 731.0,217.5 730.0,217.5 729.5,218.0 729.0,218.5 728.5,219.0 728.0,219.5 727.5,220.0 727.0,220.5 726.5,221.0 726.0,221.5 725.5,222.0 726.0,222.5 726.5,222.0 727.0,221.5 728.0,221.5 728.5,221.0 729.0,220.5 729.5,220.0 730.0,219.5 731.0,219.5 731.5,219.0 732.0,218.5 732.5,218.0 733.0,217.5 734.0,217.5 734.5,217.0 735.0,216.5 736.0,216.5 736.5,216.0 737.0,215.5 737.5,215.0 738.0,214.5 739.0,214.5 739.5,214.0 740.0,213.5 740.5,213.0 741.0,212.5 741.5,212.0 742.0,211.5 743.0,211.5 743.5,211.0 744.0,210.5 745.0,210.5 745.5,210.0 746.0,209.5 746.5,209.0 747.0,208.5 748.0,208.5 748.5,208.0 749.0,207.5 750.0,207.5 750.5,207.0 751.0,206.5 751.5,206.0 752.0,205.5 752.5,205.0 753.0,204.5 754.0,204.5 754.5,204.0 755.0,203.5 755.5,203.0 756.0,202.5 756.5,202.0 757.0,201.5 758.0,201.5 758.5,201.0 759.0,200.5 759.5,200.0 760.0,199.5 761.0,199.5 761.5,199.0 762.0,198.5 762.5,198.0 763.0,197.5 764.0,197.5 764.5,197.0 765.0,196.5 765.5,196.0 766.0,195.5 766.5,195.0 767.0,194.5 768.0,194.5 768.5,194.0 769.0,193.5 769.5,193.0 770.0,192.5 770.5,192.0 771.0,191.5 772.0,191.5 772.5,191.0 773.0,190.5 773.5,190.0 774.0,189.5 775.0,189.5 775.5,189.0 776.0,188.5 776.5,188.0 777.0,187.5 777.5,187.0 778.0,186.5 779.0,186.5 779.5,186.0 780.0,185.5 780.5,185.0 781.0,184.5 782.0,184.5 782.5,184.0 783.0,183.5 783.5,183.0 784.0,182.5 784.5,182.0 785.0,181.5 786.0,181.5 786.5,181.0 787.0,180.5 787.5,180.0 788.0,179.5 788.5,179.0 789.0,178.5 790.0,178.5 790.5,178.0 791.0,177.5 791.5,177.0 792.0,176.5 792.5,176.0 793.0,175.5 794.0,175.5 794.5,175.0 795.0,174.5 795.5,174.0 796.0,173.5 796.5,173.0 797.0,172.5 798.0,172.5 798.5,172.0 799.0,171.5 799.5,171.0 800.0,170.5 801.0,170.5 801.5,170.0 802.0,169.5 802.5,169.0 803.0,168.5 803.5,168.0 804.0,167.5 805.0,167.5 805.5,167.0 806.0,166.5 806.5,166.0 807.0,165.5 808.0,165.5 808.5,165.0 809.0,164.5 809.5,164.0 810.0,163.5 810.5,163.0 811.0,162.5 812.0,162.5 812.5,162.0 813.0,161.5 813.5,161.0 814.0,160.5 814.5,160.0 815.0,159.5 815.5,159.0 816.0,158.5 817.0,158.5 817.5,158.0 818.0,157.5 818.5,157.0 819.0,156.5 819.5,156.0 820.0,155.5 821.0,155.5 821.5,155.0 822.0,154.5 822.5,154.0 823.0,153.5 823.5,153.0 824.0,152.5 825.0,152.5 825.5,152.0 826.0,151.5 826.5,151.0 827.0,150.5 827.5,150.0 828.0,149.5 829.0,149.5 829.5,149.0 830.0,148.5 830.5,148.0 831.0,147.5 831.5,147.0 832.0,146.5 833.0,146.5 833.5,146.0 834.0,145.5 835.0,145.5 835.5,146.0 835.5,147.0 835.5,148.0 835.5,149.0 835.5,150.0 835.5,151.0 835.5,152.0 835.5,153.0 835.0,153.5 834.5,154.0 834.5,155.0 834.5,156.0 834.0,156.5 833.5,157.0 833.5,158.0 833.5,159.0 833.0,159.5 832.5,160.0 832.5,161.0 832.0,161.5 831.5,162.0 831.5,163.0 831.5,164.0 831.0,164.5 830.5,165.0 830.5,166.0 830.0,166.5 829.5,167.0 829.5,168.0 829.0,168.5 828.5,169.0 828.5,170.0 828.0,170.5 827.5,171.0 827.0,171.5 826.5,172.0 826.5,173.0 826.0,173.5 825.5,174.0 825.5,175.0 825.0,175.5 824.5,176.0 824.0,176.5 823.5,177.0 823.5,178.0 823.0,178.5 822.5,179.0 822.0,179.5 821.5,180.0 821.0,180.5 820.5,181.0 820.5,182.0 820.0,182.5 819.5,183.0 819.0,183.5 818.5,184.0 818.0,184.5 817.5,185.0 817.5,186.0 817.0,186.5 816.5,187.0 816.0,187.5 815.5,188.0 815.0,188.5 814.5,189.0 814.0,189.5 813.5,190.0 813.5,191.0 813.0,191.5 812.5,192.0 812.0,192.5 811.5,193.0 811.0,193.5 810.5,194.0 810.0,194.5 809.5,195.0 809.0,195.5 808.5,196.0 808.0,196.5 807.5,197.0 807.0,197.5 806.5,198.0 806.5,199.0 806.0,199.5 805.5,200.0 805.0,200.5 804.5,201.0 804.0,201.5 803.5,202.0 803.0,202.5 802.5,203.0 802.0,203.5 801.5,204.0 801.0,204.5 800.5,205.0 800.0,205.5 799.5,206.0 799.0,206.5 798.5,207.0 798.0,207.5 797.5,208.0 797.0,208.5 796.5,209.0 796.0,209.5 795.5,210.0 795.0,210.5 794.0,210.5 793.5,211.0 793.0,211.5 792.5,212.0 792.0,212.5 791.5,213.0 791.0,213.5 790.5,214.0 790.0,214.5 789.5,215.0 789.0,215.5 788.5,216.0 788.0,216.5 787.5,217.0 787.0,217.5 786.5,218.0 786.0,218.5 785.0,218.5 784.5,219.0 784.0,219.5 783.5,220.0 783.0,220.5 782.5,221.0 782.0,221.5 781.5,222.0 781.0,222.5 780.5,223.0 780.0,223.5 779.0,223.5 778.5,224.0 778.0,224.5 777.5,225.0 777.0,225.5 776.5,226.0 776.0,226.5 775.0,226.5 774.5,227.0 774.0,227.5 773.5,228.0 773.0,228.5 772.5,229.0 772.0,229.5 771.0,229.5 770.5,230.0 770.0,230.5 769.5,231.0 769.0,231.5 768.0,231.5 767.5,232.0 767.0,232.5 766.5,233.0 766.0,233.5 765.5,234.0 765.0,234.5 764.0,234.5 763.5,235.0 763.0,235.5 762.5,236.0 762.0,236.5 761.0,236.5 760.5,237.0 760.0,237.5 759.5,238.0 759.0,238.5 758.0,238.5 757.5,239.0 757.0,239.5 756.5,240.0 756.0,240.5 755.5,241.0 755.0,241.5 754.0,241.5 753.5,242.0 753.0,242.5 752.0,242.5 751.5,243.0 751.0,243.5 750.5,244.0 750.0,244.5 749.0,244.5 748.5,245.0 748.0,245.5 747.0,245.5 746.5,246.0 746.0,246.5 745.5,247.0 745.0,247.5 744.0,247.5 743.5,248.0 743.0,248.5 742.5,249.0 742.0,249.5 741.0,249.5 740.5,250.0 740.0,250.5 739.5,251.0 739.0,251.5 738.0,251.5 737.5,252.0 737.0,252.5 736.0,252.5 735.5,253.0 735.0,253.5 734.5,254.0 734.0,254.5 733.0,254.5 732.5,255.0 732.0,255.5 731.0,255.5 730.5,256.0 730.0,256.5 729.5,257.0 729.0,257.5 728.0,257.5 727.5,258.0 727.0,258.5 726.0,258.5 725.5,259.0 725.0,259.5 724.0,259.5 723.5,260.0 723.0,260.5 722.0,260.5 721.5,261.0 721.0,261.5 720.0,261.5 719.5,262.0 719.0,262.5 718.5,263.0 718.0,263.5 717.0,263.5 716.5,264.0 716.0,264.5 715.5,265.0 716.0,265.5 717.0,265.5 717.5,265.0 718.0,264.5 719.0,264.5 719.5,264.0 720.0,263.5 721.0,263.5 721.5,263.0 722.0,262.5 723.0,262.5 723.5,262.0 724.0,261.5 725.0,261.5 725.5,261.0 726.0,260.5 727.0,260.5 728.0,260.5 728.5,260.0 729.0,259.5 730.0,259.5 730.5,259.0 731.0,258.5 732.0,258.5 732.5,258.0 733.0,257.5 734.0,257.5 734.5,257.0 735.0,256.5 736.0,256.5 736.5,256.0 737.0,255.5 738.0,255.5 738.5,255.0 739.0,254.5 740.0,254.5 740.5,254.0 741.0,253.5 742.0,253.5 742.5,253.0 743.0,252.5 744.0,252.5 745.0,252.5 745.5,252.0 746.0,251.5 747.0,251.5 747.5,251.0 748.0,250.5 749.0,250.5 749.5,250.0 750.0,249.5 751.0,249.5 751.5,249.0 752.0,248.5 753.0,248.5 753.5,248.0 754.0,247.5 755.0,247.5 755.5,247.0 756.0,246.5 757.0,246.5 757.5,246.0 758.0,245.5 759.0,245.5 759.5,245.0 760.0,244.5 761.0,244.5 761.5,244.0 762.0,243.5 763.0,243.5 763.5,243.0 764.0,242.5 765.0,242.5 766.0,242.5 766.5,242.0 767.0,241.5 767.5,241.0 768.0,240.5 769.0,240.5 770.0,240.5 770.5,240.0 771.0,239.5 772.0,239.5 772.5,239.0 773.0,238.5 774.0,238.5 774.5,238.0 775.0,237.5 775.5,237.0 776.0,236.5 777.0,236.5 777.5,236.0 778.0,235.5 779.0,235.5 779.5,235.0 780.0,234.5 781.0,234.5 782.0,234.5 782.5,234.0 783.0,233.5 784.0,233.5 784.5,233.0 785.0,232.5 786.0,232.5 786.5,232.0 787.0,231.5 788.0,231.5 788.5,231.0 789.0,230.5 790.0,230.5 790.5,230.0 791.0,229.5 792.0,229.5 792.5,229.0 793.0,228.5 794.0,228.5 794.5,228.0 795.0,227.5 796.0,227.5 796.5,227.0 797.0,226.5 798.0,226.5 798.5,226.0 799.0,225.5 800.0,225.5 800.5,225.0 801.0,224.5 802.0,224.5 802.5,224.0 803.0,223.5 804.0,223.5 804.5,223.0 805.0,222.5 806.0,222.5 806.5,222.0 807.0,221.5 808.0,221.5 808.5,221.0 809.0,220.5 810.0,220.5 811.0,220.5 811.5,220.0 812.0,219.5 813.0,219.5 813.5,219.0 814.0,218.5 815.0,218.5 815.5,218.0 816.0,217.5 817.0,217.5 817.5,217.0 818.0,216.5 819.0,216.5 820.0,216.5 821.0,216.5 822.0,216.5 822.5,217.0 822.5,218.0 822.5,219.0 822.0,219.5 821.5,220.0 821.5,221.0 821.5,222.0 821.0,222.5 820.5,223.0 820.5,224.0 820.0,224.5 819.5,225.0 819.5,226.0 819.0,226.5 818.5,227.0 818.5,228.0 818.0,228.5 817.5,229.0 817.0,229.5 816.5,230.0 816.5,231.0 816.0,231.5 815.5,232.0 815.0,232.5 814.5,233.0 814.5,234.0 814.0,234.5 813.5,235.0 813.0,235.5 812.5,236.0 812.0,236.5 811.5,237.0 811.5,238.0 811.0,238.5 810.5,239.0 810.0,239.5 809.5,240.0 809.0,240.5 808.5,241.0 808.0,241.5 807.5,242.0 807.0,242.5 806.5,243.0 806.0,243.5 805.5,244.0 805.0,244.5 804.5,245.0 804.0,245.5 803.5,246.0 803.5,247.0 803.0,247.5 802.5,248.0 802.0,248.5 801.5,249.0 801.0,249.5 800.5,250.0 800.0,250.5 799.5,251.0 799.0,251.5 798.5,252.0 798.0,252.5 797.5,253.0 797.0,253.5 796.5,254.0 796.0,254.5 795.5,255.0 795.0,255.5 794.0,255.5 793.5,256.0 793.0,256.5 792.5,257.0 792.0,257.5 791.5,258.0 791.0,258.5 790.5,259.0 790.0,259.5 789.0,259.5 788.5,260.0 788.0,260.5 787.5,261.0 787.0,261.5 786.5,262.0 786.0,262.5 785.0,262.5 784.5,263.0 784.0,263.5 783.5,264.0 783.0,264.5 782.5,265.0 782.0,265.5 781.0,265.5 780.5,266.0 780.0,266.5 779.0,266.5 778.5,267.0 778.0,267.5 777.5,268.0 777.0,268.5 776.0,268.5 775.5,269.0 775.0,269.5 774.5,270.0 774.0,270.5 773.0,270.5 772.5,271.0 772.0,271.5 771.5,272.0 771.0,272.5 770.0,272.5 769.5,273.0 769.0,273.5 768.0,273.5 767.5,274.0 767.0,274.5 766.0,274.5 765.5,275.0 765.0,275.5 764.0,275.5 763.5,276.0 763.0,276.5 762.5,277.0 762.0,277.5 761.0,277.5 760.5,278.0 760.0,278.5 759.0,278.5 758.5,279.0 758.5,280.0 758.0,280.5 757.5,281.0 757.0,281.5 756.5,282.0 756.5,283.0 756.0,283.5 755.5,284.0 755.0,284.5 754.5,285.0 754.5,286.0 754.0,286.5 753.5,287.0 753.0,287.5 752.5,288.0 752.0,288.5 751.5,289.0 751.5,290.0 751.0,290.5 750.5,291.0 750.0,291.5 749.5,292.0 749.0,292.5 748.5,293.0 748.0,293.5 747.5,294.0 747.0,294.5 746.5,295.0 746.0,295.5 745.5,296.0 745.0,296.5 744.5,297.0 745.0,297.5 746.0,297.5 747.0,297.5 747.5,297.0 748.0,296.5 749.0,296.5 750.0,296.5 750.5,296.0 751.0,295.5 752.0,295.5 753.0,295.5 753.5,295.0 754.0,294.5 755.0,294.5 756.0,294.5 756.5,294.0 757.0,293.5 758.0,293.5 759.0,293.5 759.5,293.0 760.0,292.5 761.0,292.5 762.0,292.5 762.5,292.0 763.0,291.5 764.0,291.5 765.0,291.5 765.5,291.0 766.0,290.5 767.0,290.5 768.0,290.5 768.5,290.0 769.0,289.5 770.0,289.5 771.0,289.5 771.5,289.0 772.0,288.5 773.0,288.5 774.0,288.5 774.5,288.0 775.0,287.5 776.0,287.5 777.0,287.5 777.5,287.0 778.0,286.5 779.0,286.5 780.0,286.5 780.5,286.0 781.0,285.5 782.0,285.5 783.0,285.5 783.5,285.0 784.0,284.5 785.0,284.5 786.0,284.5 787.0,284.5 787.5,285.0 787.5,286.0 787.5,287.0 787.5,288.0 787.0,288.5 786.5,289.0 786.5,290.0 786.0,290.5 785.5,291.0 785.5,292.0 785.0,292.5 784.5,293.0 784.5,294.0 784.0,294.5 783.5,295.0 783.0,295.5 782.5,296.0 782.5,297.0 782.0,297.5 781.5,298.0 781.0,298.5 780.5,299.0 780.0,299.5 779.5,300.0 779.0,300.5 778.5,301.0 778.5,302.0 778.0,302.5 777.5,303.0 777.0,303.5 776.5,304.0 776.0,304.5 775.5,305.0 775.0,305.5 774.5,306.0 774.0,306.5 773.5,307.0 773.0,307.5 772.5,308.0 772.0,308.5 771.5,309.0 771.0,309.5 770.5,310.0 770.0,310.5 769.5,311.0 769.0,311.5 768.5,312.0 768.0,312.5 767.0,312.5 766.5,313.0 766.0,313.5 765.5,314.0 765.0,314.5 764.5,315.0 764.0,315.5 763.5,316.0 763.0,316.5 762.0,316.5 761.5,317.0 761.0,317.5 760.5,318.0 760.0,318.5 759.5,319.0 759.0,319.5 758.0,319.5 757.5,320.0 757.0,320.5 756.5,321.0 756.0,321.5 755.0,321.5 754.5,322.0 754.0,322.5 753.5,323.0 753.0,323.5 752.0,323.5 751.5,324.0 751.0,324.5 750.5,325.0 750.0,325.5 749.0,325.5 748.5,326.0 748.0,326.5 747.0,326.5 746.5,327.0 746.0,327.5 745.0,327.5 744.5,328.0 744.0,328.5 743.0,328.5 742.5,329.0 742.0,329.5 741.0,329.5 740.5,330.0 740.0,330.5 739.0,330.5 738.5,331.0 738.0,331.5 737.0,331.5 736.5,332.0 736.0,332.5 735.0,332.5 734.5,333.0 734.0,333.5 733.0,333.5 732.0,333.5 731.5,334.0 731.0,334.5 730.0,334.5 729.5,335.0 729.0,335.5 728.0,335.5 727.5,336.0 727.0,336.5 726.0,336.5 725.0,336.5 724.5,337.0 724.0,337.5 723.0,337.5 722.0,337.5 721.5,338.0 721.0,338.5 720.0,338.5 719.5,339.0 719.0,339.5 718.0,339.5 717.0,339.5 716.5,340.0 716.0,340.5 715.0,340.5 714.5,341.0 714.0,341.5 713.0,341.5 712.5,342.0 712.0,342.5 711.0,342.5 710.5,343.0 710.0,343.5 709.0,343.5 708.5,344.0 708.0,344.5 707.0,344.5 706.5,345.0 706.0,345.5 705.0,345.5 704.5,346.0 704.0,346.5 703.0,346.5 702.0,346.5 701.5,347.0 701.0,347.5 700.0,347.5 699.5,348.0 699.0,348.5 698.0,348.5 697.5,349.0 697.0,349.5 696.0,349.5 695.5,350.0 695.0,350.5 694.0,350.5 693.5,351.0 693.0,351.5 692.0,351.5 691.5,352.0 691.0,352.5 690.0,352.5 689.5,353.0 689.0,353.5 688.0,353.5 687.5,354.0 687.0,354.5 686.0,354.5 685.5,355.0 685.0,355.5 684.0,355.5 683.0,355.5 682.5,356.0 682.0,356.5 681.0,356.5 680.5,357.0 681.0,357.5 682.0,357.5 683.0,357.5 684.0,357.5 685.0,357.5 686.0,357.5 687.0,357.5 688.0,357.5 689.0,357.5 689.5,357.0 690.0,356.5 691.0,356.5 692.0,356.5 693.0,356.5 694.0,356.5 695.0,356.5 696.0,356.5 697.0,356.5 698.0,356.5 699.0,356.5 699.5,356.0 700.0,355.5 701.0,355.5 702.0,355.5 703.0,355.5 704.0,355.5 705.0,355.5 706.0,355.5 707.0,355.5 707.5,355.0 708.0,354.5 709.0,354.5 710.0,354.5 711.0,354.5 712.0,354.5 713.0,354.5 714.0,354.5 715.0,354.5 716.0,354.5 717.0,354.5 717.5,354.0 718.0,353.5 719.0,353.5 720.0,353.5 721.0,353.5 722.0,353.5 723.0,353.5 723.5,353.0 724.0,352.5 725.0,352.5 726.0,352.5 727.0,352.5 728.0,352.5 729.0,352.5 730.0,352.5 731.0,352.5 732.0,352.5 732.5,353.0 732.5,354.0 732.0,354.5 731.5,355.0 731.5,356.0 731.0,356.5 730.5,357.0 730.0,357.5 729.5,358.0 729.5,359.0 729.0,359.5 728.5,360.0 728.0,360.5 727.5,361.0 727.5,362.0 727.0,362.5 726.5,363.0 726.0,363.5 725.5,364.0 725.0,364.5 724.5,365.0 724.0,365.5 723.5,366.0 723.0,366.5 722.5,367.0 722.0,367.5 721.5,368.0 721.0,368.5 720.5,369.0 720.0,369.5 719.5,370.0 719.0,370.5 718.5,371.0 718.0,371.5 717.5,372.0 717.0,372.5 716.0,372.5 715.5,373.0 715.0,373.5 714.5,374.0 714.0,374.5 713.0,374.5 712.5,375.0 712.0,375.5 711.0,375.5 710.5,376.0 710.0,376.5 709.5,377.0 709.0,377.5 708.0,377.5 707.5,378.0 707.0,378.5 706.0,378.5 705.5,379.0 705.0,379.5 704.0,379.5 703.5,380.0 703.0,380.5 702.0,380.5 701.5,381.0 701.0,381.5 700.5,382.0 700.0,382.5 699.0,382.5 698.0,382.5 697.5,383.0 697.0,383.5 696.0,383.5 695.5,384.0 695.0,384.5 694.0,384.5 693.0,384.5 692.5,385.0 692.0,385.5 691.0,385.5 690.0,385.5 689.5,386.0 689.0,386.5 688.0,386.5 687.0,386.5 686.5,387.0 686.0,387.5 685.0,387.5 684.0,387.5 683.0,387.5 682.5,388.0 682.0,388.5 681.0,388.5 680.0,388.5 679.0,388.5 678.0,388.5 677.5,389.0 677.0,389.5 676.0,389.5 675.0,389.5 674.0,389.5 673.0,389.5 672.0,389.5 671.0,389.5 670.0,389.5 669.0,389.5 668.5,390.0 669.0,390.5 669.5,391.0 670.0,391.5 670.5,392.0 671.0,392.5 671.5,393.0 672.0,393.5 672.5,394.0 673.0,394.5 673.5,395.0 674.0,395.5 674.5,396.0 674.5,397.0 675.0,397.5 675.5,398.0 675.5,399.0 676.0,399.5 676.5,400.0 676.5,401.0 676.5,402.0 677.0,402.5 677.5,403.0 677.5,404.0 677.5,405.0 677.5,406.0 677.5,407.0 677.5,408.0 677.5,409.0 677.0,409.5 676.5,410.0 676.5,411.0 676.5,412.0 676.5,413.0 676.0,413.5 675.5,414.0 675.5,415.0 675.5,416.0 675.0,416.5 674.5,417.0 674.5,418.0 674.0,418.5 673.5,419.0 673.0,419.5 672.5,420.0 672.0,420.5 671.5,421.0 671.5,422.0 671.0,422.5 670.5,423.0 670.0,423.5 669.5,424.0 669.0,424.5 668.5,425.0 668.0,425.5 667.5,426.0 667.0,426.5 666.5,427.0 666.0,427.5 665.0,427.5 664.5,428.0 664.0,428.5 663.5,429.0 663.0,429.5 662.0,429.5 661.5,430.0 661.0,430.5 660.5,431.0 660.0,431.5 659.0,431.5 658.0,431.5 657.5,432.0 657.0,432.5 656.0,432.5 655.0,432.5 654.5,433.0 654.0,433.5 653.5,434.0 653.5,435.0 653.5,436.0 653.0,436.5 652.5,437.0 652.5,438.0 652.0,438.5 651.5,439.0 651.0,439.5 650.5,440.0 650.0,440.5 649.5,441.0 649.0,441.5 648.5,442.0 648.0,442.5 647.5,443.0 647.0,443.5 646.5,444.0 646.0,444.5 645.0,444.5 644.5,445.0 644.5,446.0 644.5,447.0 644.5,448.0 644.5,449.0 644.5,450.0 644.5,451.0 644.5,452.0 644.0,452.5 643.5,453.0 643.5,454.0 643.5,455.0 643.5,456.0 643.0,456.5 642.5,457.0 642.0,457.5 641.5,458.0 641.5,459.0 641.0,459.5 640.5,460.0 640.0,460.5 639.5,461.0 639.5,462.0 639.0,462.5 638.5,463.0 638.0,463.5 637.5,464.0 637.0,464.5 636.5,465.0 636.0,465.5 635.5,466.0 635.0,466.5 634.5,467.0 634.0,467.5 633.0,467.5 632.5,468.0 632.0,468.5 631.5,469.0 631.0,469.5 630.0,469.5 629.5,470.0 629.0,470.5 628.5,471.0 628.0,471.5 627.0,471.5 626.5,472.0 626.0,472.5 625.5,473.0 625.0,473.5 624.0,473.5 623.5,474.0 623.0,474.5 622.0,474.5 621.5,475.0 621.0,475.5 620.0,475.5 619.5,476.0 619.0,476.5 618.5,477.0 618.0,477.5 617.0,477.5 616.5,478.0 616.0,478.5 615.0,478.5 614.5,479.0 614.0,479.5 613.0,479.5 612.5,480.0 612.0,480.5 611.0,480.5 610.0,480.5 609.5,481.0 609.5,482.0 609.5,483.0 609.5,484.0 609.5,485.0 609.0,485.5 608.5,486.0 608.5,487.0 608.5,488.0 608.0,488.5 607.5,489.0 607.5,490.0 607.0,490.5 606.5,491.0 606.5,492.0 606.0,492.5 605.5,493.0 605.0,493.5 604.5,494.0 604.0,494.5 603.5,495.0 603.5,496.0 603.0,496.5 602.5,497.0 602.0,497.5 601.0,497.5 600.5,498.0 600.0,498.5 599.5,499.0 599.0,499.5 598.5,500.0 598.0,500.5 597.5,501.0 597.0,501.5 596.0,501.5 595.5,502.0 595.0,502.5 594.0,502.5 593.5,503.0 593.0,503.5 592.0,503.5 591.5,504.0 591.0,504.5 590.0,504.5 589.5,505.0 589.0,505.5 588.0,505.5 587.5,506.0 587.0,506.5 586.0,506.5 585.0,506.5 584.5,507.0 584.0,507.5 583.0,507.5 582.0,507.5 581.5,508.0 581.0,508.5 580.0,508.5 579.0,508.5 578.0,508.5 577.0,508.5 576.0,508.5 575.5,509.0 575.0,509.5 574.0,509.5 573.0,509.5 572.0,509.5 571.0,509.5 570.0,509.5 569.0,509.5 568.0,509.5 567.0,509.5 566.0,509.5 565.0,509.5 564.0,509.5 563.0,509.5 562.0,509.5 561.0,509.5 560.0,509.5 559.0,509.5 558.0,509.5 557.0,509.5 556.5,509.0 556.0,508.5 555.0,508.5 554.0,508.5 553.0,508.5 552.0,508.5 551.0,508.5 550.5,508.0 550.0,507.5 549.0,507.5 548.0,507.5 547.0,507.5 546.5,507.0 546.0,506.5 545.0,506.5 544.0,506.5 543.5,507.0 544.0,507.5 545.0,507.5 545.5,508.0 546.0,508.5 546.5,509.0 547.0,509.5 548.0,509.5 548.5,510.0 549.0,510.5 550.0,510.5 550.5,511.0 551.0,511.5 551.5,512.0 552.0,512.5 553.0,512.5 553.5,513.0 554.0,513.5 554.5,514.0 555.0,514.5 556.0,514.5 556.5,515.0 557.0,515.5 558.0,515.5 558.5,516.0 559.0,516.5 559.5,517.0 560.0,517.5 561.0,517.5 561.5,518.0 562.0,518.5 563.0,518.5 563.5,519.0 564.0,519.5 565.0,519.5 565.5,520.0 566.0,520.5 566.5,521.0 567.0,521.5 568.0,521.5 568.5,522.0 569.0,522.5 570.0,522.5 570.5,523.0 571.0,523.5 572.0,523.5 572.5,524.0 573.0,524.5 574.0,524.5 574.5,525.0 575.0,525.5 576.0,525.5 576.5,526.0 577.0,526.5 578.0,526.5 578.5,527.0 579.0,527.5 580.0,527.5 580.5,528.0 581.0,528.5 582.0,528.5 582.5,529.0 583.0,529.5 584.0,529.5 584.5,530.0 585.0,530.5 586.0,530.5 586.5,531.0 587.0,531.5 588.0,531.5 588.5,532.0 589.0,532.5 590.0,532.5 590.5,533.0 591.0,533.5 592.0,533.5 592.5,534.0 593.0,534.5 594.0,534.5 594.5,535.0 595.0,535.5 596.0,535.5 597.0,535.5 597.5,536.0 598.0,536.5 598.5,537.0 599.0,537.5 600.0,537.5 600.5,538.0 601.0,538.5 602.0,538.5 602.5,539.0 603.0,539.5 604.0,539.5 604.5,540.0 605.0,540.5 606.0,540.5 606.5,541.0 607.0,541.5 608.0,541.5 608.5,542.0 609.0,542.5 610.0,542.5 610.5,543.0 611.0,543.5 612.0,543.5 612.5,544.0 613.0,544.5 614.0,544.5 614.5,545.0 615.0,545.5 616.0,545.5 617.0,545.5 617.5,546.0 618.0,546.5 619.0,546.5 619.5,547.0 620.0,547.5 621.0,547.5 621.5,548.0 622.0,548.5 623.0,548.5 623.5,549.0 624.0,549.5 625.0,549.5 626.0,549.5 627.0,549.5 627.5,550.0 628.0,550.5 629.0,550.5 630.0,550.5 631.0,550.5 631.5,551.0 632.0,551.5 633.0,551.5 634.0,551.5 634.5,552.0 635.0,552.5 636.0,552.5 637.0,552.5 638.0,552.5 638.5,553.0 639.0,553.5 640.0,553.5 641.0,553.5 642.0,553.5 642.5,554.0 643.0,554.5 644.0,554.5 645.0,554.5 646.0,554.5 647.0,554.5 647.5,555.0 648.0,555.5 649.0,555.5 650.0,555.5 651.0,555.5 651.5,556.0 652.0,556.5 653.0,556.5 654.0,556.5 655.0,556.5 655.5,557.0 656.0,557.5 657.0,557.5 658.0,557.5 659.0,557.5 659.5,558.0 660.0,558.5 661.0,558.5 662.0,558.5 663.0,558.5 663.5,559.0 664.0,559.5 665.0,559.5 666.0,559.5 667.0,559.5 667.5,560.0 668.0,560.5 669.0,560.5 670.0,560.5 671.0,560.5 671.5,561.0 672.0,561.5 673.0,561.5 674.0,561.5 675.0,561.5 676.0,561.5 676.5,562.0 677.0,562.5 678.0,562.5 679.0,562.5 680.0,562.5 680.5,563.0 681.0,563.5 682.0,563.5 683.0,563.5 684.0,563.5 684.5,564.0 685.0,564.5 686.0,564.5 687.0,564.5 688.0,564.5 689.0,564.5 689.5,565.0 690.0,565.5 691.0,565.5 692.0,565.5 693.0,565.5 693.5,566.0 694.0,566.5 695.0,566.5 696.0,566.5 697.0,566.5 697.5,567.0 698.0,567.5 699.0,567.5 700.0,567.5 700.5,568.0 701.0,568.5 702.0,568.5 703.0,568.5 704.0,568.5 705.0,568.5 705.5,569.0 706.0,569.5 707.0,569.5 708.0,569.5 709.0,569.5 709.5,570.0 710.0,570.5 711.0,570.5 712.0,570.5 713.0,570.5 713.5,571.0 714.0,571.5 715.0,571.5 716.0,571.5 717.0,571.5 717.5,572.0 718.0,572.5 719.0,572.5 720.0,572.5 721.0,572.5 721.5,573.0 722.0,573.5 723.0,573.5 724.0,573.5 724.5,574.0 725.0,574.5 726.0,574.5 727.0,574.5 728.0,574.5 728.5,575.0 729.0,575.5 730.0,575.5 731.0,575.5 732.0,575.5 732.5,576.0 733.0,576.5 734.0,576.5 735.0,576.5 736.0,576.5 737.0,576.5 737.5,577.0 738.0,577.5 739.0,577.5 740.0,577.5 740.5,578.0 741.0,578.5 742.0,578.5 743.0,578.5 743.5,579.0 744.0,579.5 745.0,579.5 746.0,579.5 747.0,579.5 748.0,579.5 748.5,580.0 749.0,580.5 750.0,580.5 751.0,580.5 752.0,580.5 752.5,581.0 753.0,581.5 754.0,581.5 755.0,581.5 756.0,581.5 756.5,582.0 757.0,582.5 758.0,582.5 759.0,582.5 760.0,582.5 761.0,582.5 761.5,583.0 762.0,583.5 763.0,583.5 764.0,583.5 765.0,583.5 765.5,584.0 766.0,584.5 767.0,584.5 768.0,584.5 769.0,584.5 769.5,585.0 770.0,585.5 771.0,585.5 772.0,585.5 773.0,585.5 773.5,586.0 774.0,586.5 775.0,586.5 776.0,586.5 777.0,586.5 777.5,587.0 778.0,587.5 779.0,587.5 780.0,587.5 781.0,587.5 781.5,588.0 782.0,588.5 783.0,588.5 784.0,588.5 785.0,588.5 785.5,589.0 786.0,589.5 787.0,589.5 788.0,589.5 789.0,589.5 789.5,590.0 790.0,590.5 791.0,590.5 792.0,590.5 793.0,590.5 793.5,591.0 794.0,591.5 795.0,591.5 796.0,591.5 797.0,591.5 797.5,592.0 798.0,592.5 799.0,592.5 800.0,592.5 800.5,593.0 801.0,593.5 802.0,593.5 803.0,593.5 804.0,593.5 804.5,594.0 805.0,594.5 806.0,594.5 807.0,594.5 807.5,595.0 808.0,595.5 809.0,595.5 810.0,595.5 810.5,596.0 811.0,596.5 812.0,596.5 812.5,597.0 813.0,597.5 814.0,597.5 814.5,598.0 815.0,598.5 816.0,598.5 816.5,599.0 817.0,599.5 817.5,600.0 817.5,601.0 817.5,602.0 817.0,602.5 816.5,603.0 816.0,603.5 815.5,604.0 815.0,604.5 814.0,604.5 813.5,605.0 813.0,605.5 812.5,606.0 812.0,606.5 811.0,606.5 810.5,607.0 810.0,607.5 809.0,607.5 808.0,607.5 807.5,608.0 807.0,608.5 806.0,608.5 805.0,608.5 804.5,609.0 804.0,609.5 803.0,609.5 802.0,609.5 801.5,610.0 801.0,610.5 800.0,610.5 799.0,610.5 798.0,610.5 797.0,610.5 796.5,611.0 796.0,611.5 795.0,611.5 794.0,611.5 793.0,611.5 792.0,611.5 791.0,611.5 790.0,611.5 789.0,611.5 788.0,611.5 787.0,611.5 786.0,611.5 785.0,611.5 784.0,611.5 783.0,611.5 782.0,611.5 781.0,611.5 780.0,611.5 779.0,611.5 778.0,611.5 777.0,611.5 776.0,611.5 775.5,611.0 775.0,610.5 774.0,610.5 773.0,610.5 772.0,610.5 771.5,610.0 771.0,609.5 770.0,609.5 769.0,609.5 768.0,609.5 767.0,609.5 766.5,609.0 766.0,608.5 765.0,608.5 764.0,608.5 763.0,608.5 762.0,608.5 761.5,608.0 761.0,607.5 760.0,607.5 759.0,607.5 758.5,607.0 758.0,606.5 757.0,606.5 756.0,606.5 755.0,606.5 754.0,606.5 753.5,606.0 753.0,605.5 752.0,605.5 751.0,605.5 750.0,605.5 749.5,605.0 749.0,604.5 748.0,604.5 747.0,604.5 746.0,604.5 745.5,604.0 745.0,603.5 744.0,603.5 743.0,603.5 742.0,603.5 741.0,603.5 740.5,603.0 740.0,602.5 739.0,602.5 738.0,602.5 737.5,602.0 737.0,601.5 736.0,601.5 735.0,601.5 734.0,601.5 733.5,601.0 733.0,600.5 732.0,600.5 731.0,600.5 730.0,600.5 729.5,600.0 729.0,599.5 728.0,599.5 727.0,599.5 726.0,599.5 725.5,599.0 725.0,598.5 724.0,598.5 723.0,598.5 722.0,598.5 721.5,598.0 721.0,597.5 720.0,597.5 719.0,597.5 718.5,597.0 718.0,596.5 717.0,596.5 716.0,596.5 715.5,596.0 715.0,595.5 714.0,595.5 713.0,595.5 712.0,595.5 711.5,595.0 711.0,594.5 710.0,594.5 709.0,594.5 708.0,594.5 707.5,594.0 707.0,593.5 706.0,593.5 705.0,593.5 704.0,593.5 703.5,593.0 703.0,592.5 702.0,592.5 701.0,592.5 700.5,592.0 700.0,591.5 699.0,591.5 698.0,591.5 697.5,591.0 697.0,590.5 696.0,590.5 695.0,590.5 694.0,590.5 693.5,590.0 693.0,589.5 692.0,589.5 691.0,589.5 690.0,589.5 689.5,589.0 689.0,588.5 688.0,588.5 687.0,588.5 686.5,588.0 686.0,587.5 685.0,587.5 684.0,587.5 683.0,587.5 682.5,587.0 682.0,586.5 681.0,586.5 680.0,586.5 679.0,586.5 678.5,586.0 678.0,585.5 677.0,585.5 676.0,585.5 675.0,585.5 674.5,585.0 674.0,584.5 673.0,584.5 672.0,584.5 671.5,584.0 671.0,583.5 670.0,583.5 669.0,583.5 668.5,583.0 668.0,582.5 667.0,582.5 666.0,582.5 665.0,582.5 664.5,582.0 664.0,581.5 663.0,581.5 662.0,581.5 661.5,581.0 661.0,580.5 660.0,580.5 659.0,580.5 658.5,580.0 658.0,579.5 657.0,579.5 656.0,579.5 655.0,579.5 654.5,579.0 654.0,578.5 653.0,578.5 652.0,578.5 651.5,578.0 651.0,577.5 650.0,577.5 649.0,577.5 648.5,578.0 649.0,578.5 650.0,578.5 650.5,579.0 651.0,579.5 652.0,579.5 653.0,579.5 653.5,580.0 654.0,580.5 655.0,580.5 655.5,581.0 656.0,581.5 657.0,581.5 658.0,581.5 658.5,582.0 659.0,582.5 660.0,582.5 661.0,582.5 661.5,583.0 662.0,583.5 663.0,583.5 663.5,584.0 664.0,584.5 665.0,584.5 666.0,584.5 666.5,585.0 667.0,585.5 668.0,585.5 669.0,585.5 669.5,586.0 670.0,586.5 671.0,586.5 671.5,587.0 672.0,587.5 673.0,587.5 673.5,588.0 674.0,588.5 675.0,588.5 676.0,588.5 676.5,589.0 677.0,589.5 678.0,589.5 679.0,589.5 679.5,590.0 680.0,590.5 681.0,590.5 681.5,591.0 682.0,591.5 683.0,591.5 684.0,591.5 684.5,592.0 685.0,592.5 686.0,592.5 687.0,592.5 687.5,593.0 688.0,593.5 689.0,593.5 689.5,594.0 690.0,594.5 691.0,594.5 691.5,595.0 692.0,595.5 693.0,595.5 694.0,595.5 694.5,596.0 695.0,596.5 696.0,596.5 697.0,596.5 697.5,597.0 698.0,597.5 699.0,597.5 699.5,598.0 700.0,598.5 701.0,598.5 701.5,599.0 702.0,599.5 703.0,599.5 704.0,599.5 704.5,600.0 705.0,600.5 706.0,600.5 706.5,601.0 707.0,601.5 708.0,601.5 709.0,601.5 709.5,602.0 710.0,602.5 711.0,602.5 712.0,602.5 712.5,603.0 713.0,603.5 714.0,603.5 714.5,604.0 715.0,604.5 716.0,604.5 717.0,604.5 717.5,605.0 718.0,605.5 719.0,605.5 719.5,606.0 720.0,606.5 721.0,606.5 721.5,607.0 722.0,607.5 723.0,607.5 724.0,607.5 724.5,608.0 725.0,608.5 726.0,608.5 727.0,608.5 727.5,609.0 728.0,609.5 729.0,609.5 729.5,610.0 730.0,610.5 731.0,610.5 732.0,610.5 732.5,611.0 733.0,611.5 734.0,611.5 735.0,611.5 735.5,612.0 736.0,612.5 737.0,612.5 737.5,613.0 738.0,613.5 739.0,613.5 740.0,613.5 740.5,614.0 741.0,614.5 742.0,614.5 742.5,615.0 743.0,615.5 744.0,615.5 745.0,615.5 745.5,616.0 746.0,616.5 747.0,616.5 748.0,616.5 748.5,617.0 749.0,617.5 750.0,617.5 750.5,618.0 751.0,618.5 752.0,618.5 753.0,618.5 753.5,619.0 754.0,619.5 755.0,619.5 755.5,620.0 756.0,620.5 757.0,620.5 757.5,621.0 758.0,621.5 759.0,621.5 760.0,621.5 760.5,622.0 761.0,622.5 762.0,622.5 763.0,622.5 763.5,623.0 764.0,623.5 765.0,623.5 765.5,624.0 766.0,624.5 767.0,624.5 768.0,624.5 768.5,625.0 769.0,625.5 770.0,625.5 770.5,626.0 771.0,626.5 772.0,626.5 772.5,627.0 773.0,627.5 774.0,627.5 774.5,628.0 775.0,628.5 776.0,628.5 776.5,629.0 777.0,629.5 778.0,629.5 779.0,629.5 779.5,630.0 780.0,630.5 781.0,630.5 781.5,631.0 782.0,631.5 783.0,631.5 783.5,632.0 784.0,632.5 785.0,632.5 785.5,633.0 786.0,633.5 787.0,633.5 787.5,634.0 788.0,634.5 789.0,634.5 790.0,634.5 790.5,635.0 791.0,635.5 792.0,635.5 792.5,636.0 793.0,636.5 794.0,636.5 794.5,637.0 795.0,637.5 796.0,637.5 796.5,638.0 797.0,638.5 798.0,638.5 798.5,639.0 799.0,639.5 800.0,639.5 800.5,640.0 801.0,640.5 802.0,640.5 802.5,641.0 803.0,641.5 803.5,642.0 804.0,642.5 804.5,643.0 805.0,643.5 806.0,643.5 806.5,644.0 806.5,645.0 806.0,645.5 805.5,646.0 805.0,646.5 804.5,647.0 804.0,647.5 803.0,647.5 802.0,647.5 801.5,648.0 801.0,648.5 800.0,648.5 799.0,648.5 798.0,648.5 797.0,648.5 796.5,649.0 796.0,649.5 795.0,649.5 794.0,649.5 793.0,649.5 792.0,649.5 791.0,649.5 790.0,649.5 789.0,649.5 788.0,649.5 787.0,649.5 786.0,649.5 785.0,649.5 784.0,649.5 783.0,649.5 782.0,649.5 781.0,649.5 780.0,649.5 779.0,649.5 778.5,649.0 778.0,648.5 777.0,648.5 776.0,648.5 775.0,648.5 774.0,648.5 773.0,648.5 772.5,648.0 772.0,647.5 771.0,647.5 770.0,647.5 769.0,647.5 768.0,647.5 767.0,647.5 766.5,647.0 766.0,646.5 765.0,646.5 764.0,646.5 763.0,646.5 762.5,646.0 762.0,645.5 761.0,645.5 760.0,645.5 759.0,645.5 758.0,645.5 757.5,645.0 757.0,644.5 756.0,644.5 755.0,644.5 754.0,644.5 753.5,644.0 753.0,643.5 752.0,643.5 751.0,643.5 750.5,643.0 750.0,642.5 749.0,642.5 748.0,642.5 747.5,642.0 747.0,641.5 746.0,641.5 745.0,641.5 744.5,641.0 744.0,640.5 743.0,640.5 742.0,640.5 741.5,640.0 741.0,639.5 740.0,639.5 739.0,639.5 738.5,639.0 738.0,638.5 737.0,638.5 736.0,638.5 735.5,638.0 735.0,637.5 734.0,637.5 733.0,637.5 732.5,637.0 732.0,636.5 731.0,636.5 730.0,636.5 729.5,636.0 729.0,635.5 728.0,635.5 727.0,635.5 726.5,635.0 726.0,634.5 725.0,634.5 724.0,634.5 723.5,634.0 723.0,633.5 722.0,633.5 721.5,633.0 721.0,632.5 720.0,632.5 719.0,632.5 718.5,632.0 718.0,631.5 717.0,631.5 716.5,631.0 716.0,630.5 715.0,630.5 714.0,630.5 713.5,630.0 713.0,629.5 712.0,629.5 711.0,629.5 710.5,629.0 710.0,628.5 709.0,628.5 708.5,628.0 708.0,627.5 707.0,627.5 706.0,627.5 705.5,627.0 705.0,626.5 704.0,626.5 703.5,626.0 703.0,625.5 702.0,625.5 701.0,625.5 700.5,625.0 700.0,624.5 699.0,624.5 698.5,624.0 698.0,623.5 697.0,623.5 696.0,623.5 695.5,623.0 695.0,622.5 694.0,622.5 693.5,622.0 693.0,621.5 692.0,621.5 691.5,621.0 691.0,620.5 690.0,620.5 689.0,620.5 688.5,620.0 688.0,619.5 687.0,619.5 686.0,619.5 685.5,619.0 685.0,618.5 684.0,618.5 683.5,618.0 683.0,617.5 682.0,617.5 681.0,617.5 680.5,617.0 680.0,616.5 679.0,616.5 678.0,616.5 677.5,616.0 677.0,615.5 676.0,615.5 675.5,615.0 675.0,614.5 674.0,614.5 673.5,614.0 673.0,613.5 672.0,613.5 671.0,613.5 670.5,613.0 670.0,612.5 669.0,612.5 668.5,612.0 668.0,611.5 667.0,611.5 666.5,611.0 666.0,610.5 665.0,610.5 664.0,610.5 663.5,610.0 663.0,609.5 662.0,609.5 661.5,609.0 661.0,608.5 660.0,608.5 659.5,608.0 659.0,607.5 658.0,607.5 657.5,607.0 657.0,606.5 656.0,606.5 655.0,606.5 654.5,606.0 654.0,605.5 653.0,605.5 652.5,605.0 652.0,604.5 651.0,604.5 650.5,605.0 651.0,605.5 652.0,605.5 652.5,606.0 653.0,606.5 654.0,606.5 654.5,607.0 655.0,607.5 655.5,608.0 656.0,608.5 657.0,608.5 657.5,609.0 658.0,609.5 659.0,609.5 659.5,610.0 660.0,610.5 660.5,611.0 661.0,611.5 662.0,611.5 662.5,612.0 663.0,612.5 664.0,612.5 664.5,613.0 665.0,613.5 666.0,613.5 666.5,614.0 667.0,614.5 668.0,614.5 668.5,615.0 669.0,615.5 670.0,615.5 670.5,616.0 671.0,616.5 672.0,616.5 672.5,617.0 673.0,617.5 673.5,618.0 674.0,618.5 675.0,618.5 675.5,619.0 676.0,619.5 677.0,619.5 677.5,620.0 678.0,620.5 679.0,620.5 679.5,621.0 680.0,621.5 680.5,622.0 681.0,622.5 682.0,622.5 682.5,623.0 683.0,623.5 684.0,623.5 684.5,624.0 685.0,624.5 686.0,624.5 686.5,625.0 687.0,625.5 688.0,625.5 688.5,626.0 689.0,626.5 690.0,626.5 690.5,627.0 691.0,627.5 691.5,628.0 692.0,628.5 693.0,628.5 693.5,629.0 694.0,629.5 695.0,629.5 695.5,630.0 696.0,630.5 697.0,630.5 697.5,631.0 698.0,631.5 698.5,632.0 699.0,632.5 700.0,632.5 700.5,633.0 701.0,633.5 702.0,633.5 702.5,634.0 703.0,634.5 704.0,634.5 704.5,635.0 705.0,635.5 705.5,636.0 706.0,636.5 707.0,636.5 707.5,637.0 708.0,637.5 709.0,637.5 709.5,638.0 710.0,638.5 711.0,638.5 711.5,639.0 712.0,639.5 713.0,639.5 713.5,640.0 714.0,640.5 714.5,641.0 715.0,641.5 716.0,641.5 716.5,642.0 717.0,642.5 718.0,642.5 718.5,643.0 719.0,643.5 719.5,644.0 720.0,644.5 721.0,644.5 721.5,645.0 722.0,645.5 723.0,645.5 723.5,646.0 724.0,646.5 725.0,646.5 725.5,647.0 726.0,647.5 727.0,647.5 727.5,648.0 728.0,648.5 728.5,649.0 729.0,649.5 730.0,649.5 730.5,650.0 731.0,650.5 732.0,650.5 732.5,651.0 733.0,651.5 734.0,651.5 734.5,652.0 735.0,652.5 735.5,653.0 736.0,653.5 737.0,653.5 737.5,654.0 738.0,654.5 739.0,654.5 739.5,655.0 740.0,655.5 741.0,655.5 741.5,656.0 742.0,656.5 742.5,657.0 743.0,657.5 744.0,657.5 744.5,658.0 745.0,658.5 746.0,658.5 746.5,659.0 747.0,659.5 747.5,660.0 748.0,660.5 749.0,660.5 749.5,661.0 750.0,661.5 750.5,662.0 751.0,662.5 751.5,663.0 752.0,663.5 753.0,663.5 753.5,664.0 754.0,664.5 754.5,665.0 755.0,665.5 755.5,666.0 755.0,666.5 754.5,667.0 754.0,667.5 753.0,667.5 752.0,667.5 751.5,668.0 751.0,668.5 750.0,668.5 749.0,668.5 748.0,668.5 747.0,668.5 746.0,668.5 745.0,668.5 744.0,668.5 743.0,668.5 742.0,668.5 741.0,668.5 740.0,668.5 739.0,668.5 738.0,668.5 737.0,668.5 736.0,668.5 735.0,668.5 734.0,668.5 733.0,668.5 732.0,668.5 731.5,668.0 731.0,667.5 730.0,667.5 729.0,667.5 728.0,667.5 727.0,667.5 726.0,667.5 725.5,667.0 725.0,666.5 724.0,666.5 723.0,666.5 722.0,666.5 721.5,666.0 721.0,665.5 720.0,665.5 719.0,665.5 718.0,665.5 717.5,665.0 717.0,664.5 716.0,664.5 715.0,664.5 714.5,664.0 714.0,663.5 713.0,663.5 712.0,663.5 711.5,663.0 711.0,662.5 710.0,662.5 709.0,662.5 708.5,662.0 708.0,661.5 707.0,661.5 706.0,661.5 705.5,661.0 705.0,660.5 704.0,660.5 703.5,660.0 703.0,659.5 702.0,659.5 701.5,659.0 701.0,658.5 700.0,658.5 699.0,658.5 698.5,658.0 698.0,657.5 697.0,657.5 696.5,657.0 696.0,656.5 695.0,656.5 694.5,656.0 694.0,655.5 693.0,655.5 692.5,655.0 692.0,654.5 691.0,654.5 690.5,654.0 690.0,653.5 689.0,653.5 688.5,653.0 688.0,652.5 687.0,652.5 686.5,652.0 686.0,651.5 685.0,651.5 684.5,651.0 684.0,650.5 683.0,650.5 682.5,650.0 682.0,649.5 681.0,649.5 680.5,649.0 680.0,648.5 679.5,648.0 679.0,647.5 678.0,647.5 677.5,647.0 677.0,646.5 676.0,646.5 675.5,646.0 675.0,645.5 674.5,645.0 674.0,644.5 673.0,644.5 672.5,644.0 672.0,643.5 671.0,643.5 670.5,643.0 670.0,642.5 669.0,642.5 668.5,642.0 668.0,641.5 667.5,641.0 667.0,640.5 666.0,640.5 665.5,640.0 665.0,639.5 664.0,639.5 663.5,639.0 663.0,638.5 662.5,638.0 662.0,637.5 661.0,637.5 660.5,637.0 660.0,636.5 659.0,636.5 658.5,636.0 658.0,635.5 657.5,635.0 657.0,634.5 656.0,634.5 655.5,634.0 655.0,633.5 654.0,633.5 653.5,633.0 653.0,632.5 652.0,632.5 651.5,632.0 651.0,631.5 650.5,631.0 650.0,630.5 649.0,630.5 648.5,630.0 648.0,629.5 647.0,629.5 646.5,629.0 646.0,628.5 645.5,628.0 645.0,627.5 644.0,627.5 643.5,627.0 643.0,626.5 642.0,626.5 641.5,626.0 641.0,625.5 640.0,625.5 639.5,625.0 639.0,624.5 638.5,624.0 638.0,623.5 637.0,623.5 636.5,623.0 636.0,622.5 635.0,622.5 634.5,622.0 634.0,621.5 633.5,621.0 633.0,620.5 632.0,620.5 631.5,620.0 631.0,619.5 630.0,619.5 629.5,619.0 629.0,618.5 628.5,618.0 628.0,617.5 627.0,617.5 626.5,617.0 626.0,616.5 625.5,616.0 625.0,615.5 624.0,615.5 623.5,615.0 623.0,614.5 622.5,614.0 622.0,613.5 621.0,613.5 620.5,613.0 620.0,612.5 619.0,612.5 618.5,612.0 618.0,611.5 617.5,611.0 617.0,610.5 616.0,610.5 615.5,610.0 615.0,609.5 614.5,610.0 615.0,610.5 615.5,611.0 616.0,611.5 616.5,612.0 617.0,612.5 618.0,612.5 618.5,613.0 619.0,613.5 619.5,614.0 620.0,614.5 620.5,615.0 621.0,615.5 621.5,616.0 622.0,616.5 623.0,616.5 623.5,617.0 624.0,617.5 624.5,618.0 625.0,618.5 625.5,619.0 626.0,619.5 626.5,620.0 627.0,620.5 628.0,620.5 628.5,621.0 629.0,621.5 629.5,622.0 630.0,622.5 630.5,623.0 631.0,623.5 631.5,624.0 632.0,624.5 633.0,624.5 633.5,625.0 634.0,625.5 634.5,626.0 635.0,626.5 636.0,626.5 636.5,627.0 637.0,627.5 637.5,628.0 638.0,628.5 638.5,629.0 639.0,629.5 639.5,630.0 640.0,630.5 641.0,630.5 641.5,631.0 642.0,631.5 642.5,632.0 643.0,632.5 644.0,632.5 644.5,633.0 645.0,633.5 645.5,634.0 646.0,634.5 646.5,635.0 647.0,635.5 648.0,635.5 648.5,636.0 649.0,636.5 649.5,637.0 650.0,637.5 650.5,638.0 651.0,638.5 651.5,639.0 652.0,639.5 653.0,639.5 653.5,640.0 654.0,640.5 654.5,641.0 655.0,641.5 655.5,642.0 656.0,642.5 657.0,642.5 657.5,643.0 658.0,643.5 658.5,644.0 659.0,644.5 659.5,645.0 660.0,645.5 661.0,645.5 661.5,646.0 662.0,646.5 662.5,647.0 663.0,647.5 663.5,648.0 664.0,648.5 665.0,648.5 665.5,649.0 666.0,649.5 666.5,650.0 667.0,650.5 667.5,651.0 668.0,651.5 669.0,651.5 669.5,652.0 670.0,652.5 670.5,653.0 671.0,653.5 671.5,654.0 672.0,654.5 673.0,654.5 673.5,655.0 674.0,655.5 674.5,656.0 675.0,656.5 675.5,657.0 676.0,657.5 677.0,657.5 677.5,658.0 678.0,658.5 678.5,659.0 679.0,659.5 679.5,660.0 680.0,660.5 681.0,660.5 681.5,661.0 682.0,661.5 682.5,662.0 683.0,662.5 683.5,663.0 684.0,663.5 685.0,663.5 685.5,664.0 686.0,664.5 686.5,665.0 687.0,665.5 687.5,666.0 688.0,666.5 688.5,667.0 688.0,667.5 687.5,668.0 687.0,668.5 686.0,668.5 685.0,668.5 684.0,668.5 683.5,669.0 683.0,669.5" fill="white" stroke="none"/>
<polygon points="304.5,489.0 304.0,488.5 303.5,488.0 304.0,487.5 304.5,487.0 305.0,486.5 305.5,487.0 306.0,487.5 306.5,488.0 307.0,488.5 308.0,488.5 309.0,488.5 310.0,488.5 311.0,488.5 312.0,488.5 312.5,488.0 313.0,487.5 314.0,487.5 314.5,487.0 315.0,486.5 315.5,486.0 316.0,485.5 316.5,485.0 316.5,484.0 317.0,483.5 317.5,483.0 317.5,482.0 317.5,481.0 317.5,480.0 317.5,479.0 318.0,478.5 319.0,478.5 319.5,478.0 320.0,477.5 320.5,478.0 320.5,479.0 321.0,479.5 321.5,480.0 321.5,481.0 321.5,482.0 322.0,482.5 322.5,483.0 322.0,483.5 321.5,484.0 321.5,485.0 321.5,486.0 322.0,486.5 322.5,486.0 322.5,485.0 323.0,484.5 323.5,484.0 323.5,483.0 323.0,482.5 322.5,482.0 322.5,481.0 322.5,480.0 322.5,479.0 322.5,478.0 322.5,477.0 322.5,476.0 322.5,475.0 322.5,474.0 322.0,473.5 321.5,473.0 321.5,472.0 321.0,471.5 320.0,471.5 319.0,471.5 318.5,472.0 318.0,472.5 317.0,472.5 316.0,472.5 315.5,473.0 315.0,473.5 314.0,473.5 313.0,473.5 312.5,474.0 312.0,474.5 311.0,474.5 310.0,474.5 309.5,475.0 309.0,475.5 308.0,475.5 307.5,476.0 307.0,476.5 306.0,476.5 305.0,476.5 304.5,477.0 304.0,477.5 303.5,478.0 303.0,478.5 302.5,479.0 302.0,479.5 301.5,480.0 301.5,481.0 301.5,482.0 301.0,482.5 300.5,483.0 301.0,483.5 301.5,484.0 301.5,485.0 301.5,486.0 301.5,487.0 302.0,487.5 302.5,488.0 303.0,488.5 303.5,489.0 304.0,489.5 304.5,489.0" fill="white" stroke="none"/>
<polygon points="516.5,619.0 516.0,618.5 515.5,618.0 515.0,617.5 514.5,617.0 514.0,616.5 513.5,616.0 513.0,615.5 512.0,615.5 511.5,615.0 511.5,614.0 511.0,613.5 510.5,613.0 510.5,612.0 510.0,611.5 509.5,611.0 509.5,610.0 509.0,609.5 508.5,609.0 508.5,608.0 508.5,607.0 508.5,606.0 508.0,605.5 507.5,605.0 507.5,604.0 507.5,603.0 507.5,602.0 507.0,601.5 506.5,601.0 506.5,600.0 506.5,599.0 506.5,598.0 506.5,597.0 506.0,596.5 505.0,596.5 504.0,596.5 503.0,596.5 502.0,596.5 501.0,596.5 500.0,596.5 499.0,596.5 498.5,597.0 498.5,598.0 498.5,599.0 498.5,600.0 499.0,600.5 499.5,601.0 499.5,602.0 499.5,603.0 499.5,604.0 500.0,604.5 500.5,605.0 500.5,606.0 501.0,606.5 501.5,607.0 501.5,608.0 502.0,608.5 502.5,609.0 502.5,610.0 503.0,610.5 503.5,611.0 504.0,611.5 504.5,612.0 505.0,612.5 505.5,613.0 505.5,614.0 506.0,614.5 506.5,615.0 507.0,615.5 507.5,616.0 508.0,616.5 509.0,616.5 509.5,617.0 510.0,617.5 510.5,618.0 511.0,618.5 512.0,618.5 512.5,619.0 513.0,619.5 514.0,619.5 515.0,619.5 516.0,619.5 516.5,619.0" fill="white" stroke="none"/>
</svg>